<svg width="96" height="96" fill="none" xmlns="http://www.w3.org/2000/svg"><circle cx="48" cy="48" r="48" fill="#328AF1" fill-opacity=".07"/><path fill-rule="evenodd" clip-rule="evenodd" d="M36.851 78.079c-.003.105-.004.211-.004.318 0 5.757 4.232 5.718 9.738 5.667.529-.005 1.07-.01 1.619-.01.55 0 1.09.005 1.618.01 5.506.051 9.739.09 9.739-5.667 0-.133-.003-.265-.007-.397-3.456.686-7.386 1.073-11.554 1.073-4.006 0-7.792-.358-11.149-.994z" fill="#BAD9FC"/><path fill-rule="evenodd" clip-rule="evenodd" d="M52.563 59.806c-1.726.21-3.473-.44-4.792-1.78-.565-.573-.626-1.54-.136-2.158.489-.619 1.343-.655 1.907-.082.728.74 1.692 1.099 2.643.983.952-.115 1.799-.692 2.325-1.584.407-.691 1.245-.86 1.87-.376.626.483.804 1.435.396 2.126-.952 1.616-2.488 2.662-4.214 2.871z" fill="#BAD9FC" stroke="#BAD9FC"/><path fill-rule="evenodd" clip-rule="evenodd" d="M59.038 21.48c-3.348-.334-7.328-.561-11.965-.561-11.749 0-18.999 1.456-22.515 2.42-1.703.468-3.055 1.655-3.57 3.344C20.12 29.535 19 35.145 19 45.115c0 10.803 1.315 18.128 2.2 21.836.445 1.86 1.684 3.366 3.519 3.906 3.221.95 9.758 2.184 21.964 2.184 12.8 0 19.956-1.357 23.421-2.32a5.089 5.089 0 003.608-3.638c.878-3.28 2.073-9.859 2.073-21.375 0-.686-.004-1.35-.013-1.994a13.537 13.537 0 01-5.359 1.28c.01.399.015.803.015 1.21 0 4.997-.765 9.999-1.43 13.4-.517 2.647-2.612 4.641-5.27 5.09-4.112.694-10.556 1.584-16.581 1.584-5.796 0-11.588-.823-15.387-1.504-2.692-.482-4.759-2.57-5.25-5.26-.68-3.738-1.51-9.213-1.51-13.746 0-4.243.726-8.48 1.378-11.428.547-2.472 2.514-4.317 5.004-4.77 3.799-.693 9.844-1.57 16.076-1.57 2.975 0 5.95.2 8.676.484a14.698 14.698 0 012.904-7.005z" fill="#BAD9FC"/><path fill-rule="evenodd" clip-rule="evenodd" d="M65.162 45.11c-3.719-1.418-6.695-4.424-8.164-8.224H34.49a4.86 4.86 0 00-4.86 4.86v1.28a4.86 4.86 0 004.86 4.86h26.28a4.86 4.86 0 004.392-2.775z" fill="#BAD9FC"/><path d="M80.048 31c0 5.522-4.434 10-9.904 10s-9.903-4.478-9.903-10c0-5.523 4.434-10 9.903-10 5.47 0 9.904 4.477 9.904 10z" fill="#1AAB8B"/><rect x="69" y="29" width="3" height="9" rx="1.5" fill="#fff"/><rect x="69" y="25" width="3" height="3" rx="1.5" fill="#fff"/></svg>