<svg xmlns="http://www.w3.org/2000/svg" width="320" height="180" fill="none" shape-rendering="crispEdges" image-rendering="pixelated"><mask id="a" style="mask-type:alpha" maskUnits="userSpaceOnUse" x="0" y="0" width="320" height="180"><path fill="#D9D9D9" d="M0 0h320v180H0z"/></mask><g mask="url(#a)"><mask id="b" style="mask-type:alpha" maskUnits="userSpaceOnUse" x="75" y="0" width="170" height="180"><path fill="#D9D9D9" d="M75 0h170v179.618H75z"/></mask><g clip-path="url(#clip0_4505_17765)"><path d="M127 17h-5v5h5v-5z" fill="#1C3750"/><path d="M137 17h-5v5h5v-5z" fill="#162526"/><path d="M127 22h-5v5h5v-5z" fill="#1C3750"/><path d="M137 22h-5v5h5v-5z" fill="#232A29"/><path d="M141 22h-4v5h4v-5z" fill="#1C3750"/><path d="M161 22h-5v5h5v-5z" fill="#0F1813"/><path d="M165 22h-4v5h4v-5zM170 22h-5v5h5v-5zM175 22h-5v5h5v-5zM180 22h-5v5h5v-5z" fill="#131E1A"/><path d="M184 22h-4v5h4v-5zM189 22h-5v5h5v-5zM194 22h-5v5h5v-5zM199 22h-5v5h5v-5z" fill="#0F1813"/><path d="M127 27h-5v5h5v-5zM132 27h-5v5h5v-5z" fill="#1C3750"/><path d="M204 27h-5v5h5v-5z" fill="#131E1A"/><path d="M127 32h-5v4h5v-4z" fill="#1C3750"/><path d="M132 32h-5v4h5v-4z" fill="#162526"/><path d="M137 32h-5v4h5v-4z" fill="#1C3750"/><path d="M204 32h-5v4h5v-4z" fill="#131E1A"/><path d="M127 36h-5v5h5v-5z" fill="#1F3D57"/><path d="M132 36h-5v5h5v-5z" fill="#232A29"/><path d="M137 36h-5v5h5v-5z" fill="#1C3750"/><path d="M204 36h-5v5h5v-5z" fill="#131E1A"/><path d="M127 41h-5v5h5v-5zM141 41h-4v5h4v-5zM146 41h-5v5h5v-5z" fill="#1C3750"/><path d="M127 46h-5v5h5v-5zM132 46h-5v5h5v-5z" fill="#162526"/><path d="M137 46h-5v5h5v-5z" fill="#1C3750"/><path d="M113 51h-5v5h5v-5z" fill="#20476A"/><path d="M117 51h-4v5h4v-5zM137 51h-5v5h5v-5zM141 51h-4v5h4v-5zM146 51h-5v5h5v-5zM151 51h-5v5h5v-5zM156 51h-5v5h5v-5zM161 51h-5v5h5v-5z" fill="#193240"/><path d="M165 51h-4v5h4v-5zM170 51h-5v5h5v-5zM175 51h-5v5h5v-5zM180 51h-5v5h5v-5zM184 51h-4v5h4v-5zM189 51h-5v5h5v-5zM194 51h-5v5h5v-5zM199 51h-5v5h5v-5zM204 51h-5v5h5v-5z" fill="#20476A"/><path d="M108 56h-5v4h5v-4z" fill="#162526"/><path d="M113 56h-5v4h5v-4z" fill="#0F1813"/><path d="M117 56h-4v4h4v-4z" fill="#1F3D57"/><path d="M137 56h-5v4h5v-4z" fill="#20476A"/><path d="M141 56h-4v4h4v-4z" fill="#0F1813"/><path d="M146 56h-5v4h5v-4z" fill="#193240"/><path d="M151 56h-5v4h5v-4z" fill="#131E1A"/><path d="M156 56h-5v4h5v-4zM161 56h-5v4h5v-4zM165 56h-4v4h4v-4zM170 56h-5v4h5v-4zM175 56h-5v4h5v-4zM180 56h-5v4h5v-4zM184 56h-4v4h4v-4zM189 56h-5v4h5v-4zM194 56h-5v4h5v-4zM199 56h-5v4h5v-4z" fill="#20476A"/><path d="M204 56h-5v4h5v-4z" fill="#131E1A"/><path d="M113 60h-5v5h5v-5z" fill="#0F1813"/><path d="M117 60h-4v5h4v-5z" fill="#1F3D57"/><path d="M122 60h-5v5h5v-5z" fill="#162526"/><path d="M137 60h-5v5h5v-5z" fill="#193240"/><path d="M141 60h-4v5h4v-5z" fill="#0F1813"/><path d="M146 60h-5v5h5v-5z" fill="#193240"/><path d="M151 60h-5v5h5v-5z" fill="#1C3750"/><path d="M204 60h-5v5h5v-5z" fill="#131E1A"/><path d="M218 60h-5v5h5v-5z" fill="#20476A"/><path d="M113 65h-5v5h5v-5z" fill="#1C3750"/><path d="M117 65h-4v5h4v-5z" fill="#162526"/><path d="M122 65h-5v5h5v-5zM127 65h-5v5h5v-5z" fill="#20476A"/><path d="M132 65h-5v5h5v-5z" fill="#1C3750"/><path d="M137 65h-5v5h5v-5zM141 65h-4v5h4v-5zM146 65h-5v5h5v-5z" fill="#0F1813"/><path d="M151 65h-5v5h5v-5z" fill="#1C3750"/><path d="M204 65h-5v5h5v-5z" fill="#131E1A"/><path d="M208 65h-4v5h4v-5z" fill="#193240"/><path d="M213 65h-5v5h5v-5z" fill="#20476A"/><path d="M218 65h-5v5h5v-5z" fill="#1F3D57"/><path d="M113 70h-5v5h5v-5z" fill="#0F1813"/><path d="M117 70h-4v5h4v-5z" fill="#232A29"/><path d="M122 70h-5v5h5v-5zM127 70h-5v5h5v-5z" fill="#0F1813"/><path d="M132 70h-5v5h5v-5z" fill="#131E1A"/><path d="M137 70h-5v5h5v-5zM141 70h-4v5h4v-5z" fill="#0F1813"/><path d="M146 70h-5v5h5v-5z" fill="#162526"/><path d="M151 70h-5v5h5v-5z" fill="#1C3750"/><path d="M204 70h-5v5h5v-5zM208 70h-4v5h4v-5z" fill="#131E1A"/><path d="M213 70h-5v5h5v-5z" fill="#434C4A"/><path d="M103 75h-5v5h5v-5z" fill="#122F7C"/><path d="M108 75h-5v5h5v-5z" fill="#131E1A"/><path d="M127 75h-5v5h5v-5z" fill="#162526"/><path d="M132 75h-5v5h5v-5zM137 75h-5v5h5v-5z" fill="#131E1A"/><path d="M141 75h-4v5h4v-5z" fill="#0F1813"/><path d="M146 75h-5v5h5v-5z" fill="#162526"/><path d="M151 75h-5v5h5v-5z" fill="#1C3750"/><path d="M204 75h-5v5h5v-5zM208 75h-4v5h4v-5z" fill="#0F1813"/><path d="M213 75h-5v5h5v-5z" fill="#1F3D57"/><path d="M103 80h-5v4h5v-4zM108 80h-5v4h5v-4zM132 80h-5v4h5v-4z" fill="#193240"/><path d="M137 80h-5v4h5v-4z" fill="#0F1813"/><path d="M141 80h-4v4h4v-4z" fill="#193240"/><path d="M146 80h-5v4h5v-4z" fill="#162526"/><path d="M151 80h-5v4h5v-4z" fill="#1C3750"/><path d="M194 80h-5v4h5v-4z" fill="#1A57FB"/><path d="M204 80h-5v4h5v-4z" fill="#0F1813"/><path d="M208 80h-4v4h4v-4z" fill="#162526"/><path d="M98 84h-5v5h5v-5z" fill="#0F1813"/><path d="M103 84h-5v5h5v-5zM108 84h-5v5h5v-5zM132 84h-5v5h5v-5zM137 84h-5v5h5v-5zM141 84h-4v5h4v-5zM146 84h-5v5h5v-5zM151 84h-5v5h5v-5z" fill="#193240"/><path d="M204 84h-5v5h5v-5z" fill="#131E1A"/><path d="M208 84h-4v5h4v-5z" fill="#162526"/><path d="M98 89h-5v5h5v-5z" fill="#131E1A"/><path d="M103 89h-5v5h5v-5zM108 89h-5v5h5v-5zM132 89h-5v5h5v-5zM137 89h-5v5h5v-5z" fill="#193240"/><path d="M141 89h-4v5h4v-5z" fill="#1C3750"/><path d="M146 89h-5v5h5v-5z" fill="#1F3D57"/><path d="M151 89h-5v5h5v-5zM156 89h-5v5h5v-5z" fill="#193240"/><path d="M161 89h-5v5h5v-5zM165 89h-4v5h4v-5z" fill="#1C3750"/><path d="M170 89h-5v5h5v-5zM175 89h-5v5h5v-5zM180 89h-5v5h5v-5zM184 89h-4v5h4v-5zM189 89h-5v5h5v-5zM194 89h-5v5h5v-5zM199 89h-5v5h5v-5z" fill="#193240"/><path d="M204 89h-5v5h5v-5z" fill="#131E1A"/><path d="M208 89h-4v5h4v-5z" fill="#193240"/><path d="M213 89h-5v5h5v-5z" fill="#2F71FC"/><path d="M98 94h-5v5h5v-5z" fill="#131E1A"/><path d="M103 94h-5v5h5v-5z" fill="#193240"/><path d="M108 94h-5v5h5v-5z" fill="#20476A"/><path d="M113 94h-5v5h5v-5z" fill="#162526"/><path d="M117 94h-4v5h4v-5z" fill="#131E1A"/><path d="M122 94h-5v5h5v-5z" fill="#162526"/><path d="M151 94h-5v5h5v-5z" fill="#0F1813"/><path d="M156 94h-5v5h5v-5zM204 94h-5v5h5v-5z" fill="#131E1A"/><path d="M208 94h-4v5h4v-5z" fill="#193240"/><path d="M213 94h-5v5h5v-5z" fill="#162526"/><path d="M218 94h-5v5h5v-5z" fill="#131E1A"/><path d="M223 94h-5v5h5v-5z" fill="#162526"/><path d="M103 99h-5v4h5v-4zM108 99h-5v4h5v-4z" fill="#131E1A"/><path d="M113 99h-5v4h5v-4z" fill="#2C3C37"/><path d="M117 99h-4v4h4v-4z" fill="#232A29"/><path d="M151 99h-5v4h5v-4z" fill="#0F1813"/><path d="M156 99h-5v4h5v-4z" fill="#131E1A"/><path d="M208 99h-4v4h4v-4z" fill="#0F1813"/><path d="M213 99h-5v4h5v-4z" fill="#131E1A"/><path d="M218 99h-5v4h5v-4z" fill="#434C4A"/><path d="M223 99h-5v4h5v-4z" fill="#5F6388"/><path d="M108 103h-5v5h5v-5z" fill="#131E1A"/><path d="M113 103h-5v5h5v-5z" fill="#0F1813"/><path d="M132 103h-5v5h5v-5z" fill="#162526"/><path d="M156 103h-5v5h5v-5zM161 103h-5v5h5v-5z" fill="#131E1A"/><path d="M165 103h-4v5h4v-5zM170 103h-5v5h5v-5zM175 103h-5v5h5v-5z" fill="#0F1813"/><path d="M180 103h-5v5h5v-5z" fill="#131E1A"/><path d="M184 103h-4v5h4v-5zM213 103h-5v5h5v-5z" fill="#0F1813"/><path d="M218 103h-5v5h5v-5zM223 103h-5v5h5v-5z" fill="#2C3C37"/><path d="M228 103h-5v5h5v-5z" fill="#5F6388"/><path d="M232 103h-4v5h4v-5z" fill="#2C3C37"/><path d="M108 108h-5v5h5v-5z" fill="#162526"/><path d="M113 108h-5v5h5v-5z" fill="#131E1A"/><path d="M117 108h-4v5h4v-5zM122 108h-5v5h5v-5z" fill="#162526"/><path d="M127 108h-5v5h5v-5z" fill="#131E1A"/><path d="M218 108h-5v5h5v-5z" fill="#0F1813"/><path d="M223 108h-5v5h5v-5z" fill="#232A29"/><path d="M228 108h-5v5h5v-5z" fill="#131E1A"/><path d="M232 108h-4v5h4v-5z" fill="#434C4A"/><path d="M108 113h-5v5h5v-5zM113 113h-5v5h5v-5z" fill="#0F1813"/><path d="M117 113h-4v5h4v-5z" fill="#131E1A"/><path d="M122 113h-5v5h5v-5z" fill="#2C3C37"/><path d="M137 113h-5v5h5v-5zM213 113h-5v5h5v-5z" fill="#162526"/><path d="M218 113h-5v5h5v-5z" fill="#131E1A"/><path d="M223 113h-5v5h5v-5z" fill="#434C4A"/><path d="M228 113h-5v5h5v-5z" fill="#2C3C37"/><path d="M108 118h-5v5h5v-5z" fill="#434C4A"/><path d="M113 118h-5v5h5v-5zM117 118h-4v5h4v-5z" fill="#131E1A"/><path d="M122 118h-5v5h5v-5z" fill="#434C4A"/><path d="M127 118h-5v5h5v-5z" fill="#131E1A"/><path d="M132 118h-5v5h5v-5z" fill="#2C3C37"/><path d="M161 118h-5v5h5v-5z" fill="#1C3750"/><path d="M223 118h-5v5h5v-5z" fill="#0F1813"/><path d="M228 118h-5v5h5v-5z" fill="#131E1A"/><path d="M232 118h-4v5h4v-5z" fill="#162526"/><path d="M108 123h-5v4h5v-4z" fill="#232A29"/><path d="M113 123h-5v4h5v-4zM117 123h-4v4h4v-4z" fill="#0F1813"/><path d="M122 123h-5v4h5v-4z" fill="#162526"/><path d="M127 123h-5v4h5v-4z" fill="#0F1813"/><path d="M161 123h-5v4h5v-4z" fill="#1C3750"/><path d="M218 123h-5v4h5v-4z" fill="#232A29"/><path d="M223 123h-5v4h5v-4z" fill="#434C4A"/><path d="M228 123h-5v4h5v-4z" fill="#0F1813"/><path d="M232 123h-4v4h4v-4z" fill="#131E1A"/><path d="M180 17h-5v5h5v-5zM175 17h-5v5h5v-5zM170 17h-5v5h5v-5zM161 17h-5v5h5v-5zM156 17h-5v5h5v-5zM151 17h-5v5h5v-5zM165 17h-4v5h4v-5zM137 13h-5v4h5v-4zM141 13h-4v4h4v-4zM146 13h-5v4h5v-4zM156 13h-5v4h5v-4zM161 13h-5v4h5v-4zM170 13h-5v4h5v-4zM175 13h-5v4h5v-4zM180 13h-5v4h5v-4zM184 13h-4v4h4v-4zM165 13h-4v4h4v-4z" fill="#2E6DE4"/><path d="M204 17h-5v5h5v-5zM199 17h-5v5h5v-5zM194 17h-5v5h5v-5zM189 13h-5v4h5v-4zM199 46h-5v5h5v-5zM204 46h-5v5h5v-5zM208 46h-4v5h4v-5zM208 41h-4v5h4v-5zM208 36h-4v5h4v-5zM208 32h-4v4h4v-4zM208 22h-4v5h4v-5zM208 27h-4v5h4v-5zM184 60h-4v5h4v-5zM180 60h-5v5h5v-5zM175 60h-5v5h5v-5zM218 56h-5v4h5v-4zM218 51h-5v5h5v-5zM213 51h-5v5h5v-5zM223 89h-5v5h5v-5zM223 84h-5v5h5v-5zM218 84h-5v5h5v-5zM218 80h-5v4h5v-4zM218 75h-5v5h5v-5zM122 56h-5v4h5v-4zM122 51h-5v5h5v-5zM127 51h-5v5h5v-5zM113 89h-5v5h5v-5zM113 84h-5v5h5v-5zM113 80h-5v4h5v-4zM117 80h-4v4h4v-4z" fill="#689AF8"/><path d="M175 32h-5v4h5v-4zM180 32h-5v4h5v-4zM184 32h-4v4h4v-4zM189 32h-5v4h5v-4z" fill="#0ED1EF"/><path d="M156 84h-5v5h5v-5zM156 80h-5v4h5v-4zM156 75h-5v5h5v-5zM156 70h-5v5h5v-5zM156 65h-5v5h5v-5zM156 60h-5v5h5v-5zM165 60h-4v5h4v-5zM170 60h-5v5h5v-5zM170 65h-5v5h5v-5zM170 70h-5v5h5v-5zM165 70h-4v5h4v-5zM161 84h-5v5h5v-5zM165 84h-4v5h4v-5zM170 75h-5v5h5v-5zM199 80h-5v4h5v-4zM184 80h-4v4h4v-4zM213 84h-5v5h5v-5zM213 80h-5v4h5v-4zM218 89h-5v5h5v-5zM213 56h-5v4h5v-4zM208 51h-4v5h4v-5zM180 127h-5v5h5v-5zM127 56h-5v4h5v-4zM127 60h-5v5h5v-5zM132 60h-5v5h5v-5zM132 56h-5v4h5v-4zM132 51h-5v5h5v-5z" fill="#2E6DE4"/><path d="M132 41h-5v5h5v-5zM137 41h-5v5h5v-5zM141 36h-4v5h4v-5zM141 32h-4v4h4v-4zM141 27h-4v5h4v-5zM137 27h-5v5h5v-5zM151 22h-5v5h5v-5zM151 27h-5v5h5v-5zM146 27h-5v5h5v-5zM146 32h-5v4h5v-4zM151 32h-5v4h5v-4zM146 22h-5v5h5v-5zM146 36h-5v5h5v-5zM151 36h-5v5h5v-5zM146 46h-5v5h5v-5zM151 46h-5v5h5v-5zM151 41h-5v5h5v-5z" fill="#0E1615"/><path d="M170 132h-5v5h5v-5zM170 127h-5v5h5v-5zM170 123h-5v4h5v-4zM170 118h-5v5h5v-5zM170 113h-5v5h5v-5zM170 108h-5v5h5v-5z" fill="#0ED1EF"/><path d="M165 132h-4v5h4v-5zM165 127h-4v5h4v-5zM165 123h-4v4h4v-4z" fill="#2E5FAD"/><path d="M223 80h-5v4h5v-4z" fill="#252E32"/><path d="M132 113h-5v5h5v-5zM132 108h-5v5h5v-5zM127 113h-5v5h5v-5z" fill="#2E5FAD"/><path d="M117 103h-4v5h4v-5zM122 103h-5v5h5v-5zM127 103h-5v5h5v-5zM232 113h-4v5h4v-5zM213 108h-5v5h5v-5zM218 118h-5v5h5v-5z" fill="#1C2330"/><path d="M175 70h-5v5h5v-5zM180 70h-5v5h5v-5zM184 70h-4v5h4v-5zM184 65h-4v5h4v-5zM180 65h-5v5h5v-5zM175 65h-5v5h5v-5zM184 75h-4v5h4v-5zM189 75h-5v5h5v-5zM189 70h-5v5h5v-5zM189 65h-5v5h5v-5zM165 75h-4v5h4v-5zM165 80h-4v4h4v-4zM161 80h-5v4h5v-4zM161 60h-5v5h5v-5zM199 84h-5v5h5v-5zM194 84h-5v5h5v-5zM189 84h-5v5h5v-5zM184 84h-4v5h4v-5z" fill="#2E6DE4"/><path d="M199 75h-5v5h5v-5zM199 70h-5v5h5v-5zM199 65h-5v5h5v-5zM199 60h-5v5h5v-5zM194 60h-5v5h5v-5zM189 60h-5v5h5v-5z" fill="#689AF8"/><path d="M194 75h-5v5h5v-5zM194 70h-5v5h5v-5zM194 65h-5v5h5v-5z" fill="#2E6DE4"/><path d="M204 22h-5v5h5v-5z" fill="#161C27"/><path d="M132 17h-5v5h5v-5zM132 22h-5v5h5v-5z" fill="#2E5FAD"/><path d="M98 80h-5v4h5v-4z" fill="#272C2B"/><path d="M170 137h-5v5h5v-5zM170 142h-5v5h5v-5zM170 147h-5v4h5v-4zM170 151h-5v5h5v-5zM170 156h-5v5h5v-5zM170 161h-5v5h5v-5zM151 161h-5v5h5v-5zM161 161h-5v5h5v-5zM175 161h-5v5h5v-5zM189 161h-5v5h5v-5zM184 161h-4v5h4v-5zM180 161h-5v5h5v-5zM165 161h-4v5h4v-5zM156 161h-5v5h5v-5zM146 166h-5v4h5v-4zM151 166h-5v4h5v-4zM156 166h-5v4h5v-4zM161 166h-5v4h5v-4zM165 166h-4v4h4v-4zM170 166h-5v4h5v-4zM175 166h-5v4h5v-4zM180 166h-5v4h5v-4zM184 166h-4v4h4v-4zM189 166h-5v4h5v-4zM194 166h-5v4h5v-4zM161 142h-5v5h5v-5zM151 132h-5v5h5v-5zM141 142h-4v5h4v-5zM199 142h-5v5h5v-5zM204 151h-5v5h5v-5zM194 127h-5v5h5v-5z" fill="#0ED1EF"/><path d="M156 156h-5v5h5v-5zM151 156h-5v5h5v-5zM141 161h-4v5h4v-5zM189 156h-5v5h5v-5zM194 156h-5v5h5v-5zM141 170h-4v5h4v-5zM146 170h-5v5h5v-5zM151 170h-5v5h5v-5zM156 170h-5v5h5v-5zM161 170h-5v5h5v-5zM165 170h-4v5h4v-5zM170 170h-5v5h5v-5zM175 170h-5v5h5v-5zM180 170h-5v5h5v-5zM184 170h-4v5h4v-5zM189 170h-5v5h5v-5zM194 170h-5v5h5v-5zM199 170h-5v5h5v-5z" fill="#0ED1EF" fill-opacity=".4"/><path d="M151 175h-5v5h5v-5zM156 175h-5v5h5v-5zM161 175h-5v5h5v-5zM165 175h-4v5h4v-5zM170 175h-5v5h5v-5zM175 175h-5v5h5v-5zM180 175h-5v5h5v-5zM184 175h-4v5h4v-5zM189 175h-5v5h5v-5zM194 175h-5v5h5v-5zM146 175h-5v5h5v-5zM137 161h-5v5h5v-5zM132 161h-5v5h5v-5zM127 161h-5v5h5v-5zM122 166h-5v4h5v-4zM117 166h-4v4h4v-4zM117 170h-4v5h4v-5zM127 175h-5v5h5v-5zM132 175h-5v5h5v-5zM137 175h-5v5h5v-5zM132 170h-5v5h5v-5zM127 170h-5v5h5v-5zM122 170h-5v5h5v-5zM113 166h-5v4h5v-4zM108 166h-5v4h5v-4zM204 161h-5v5h5v-5zM208 161h-4v5h4v-5zM213 170h-5v5h5v-5zM218 170h-5v5h5v-5zM223 170h-5v5h5v-5zM228 170h-5v5h5v-5zM208 170h-4v5h4v-5zM204 170h-5v5h5v-5z" fill="#0ED1EF" fill-opacity=".2"/><path d="M223 166h-5v4h5v-4zM228 166h-5v4h5v-4zM232 166h-4v4h4v-4zM113 161h-5v5h5v-5zM117 161h-4v5h4v-5zM122 161h-5v5h5v-5zM137 156h-5v5h5v-5zM141 156h-4v5h4v-5zM199 156h-5v5h5v-5zM204 156h-5v5h5v-5zM213 161h-5v5h5v-5zM218 161h-5v5h5v-5zM223 161h-5v5h5v-5zM208 156h-4v5h4v-5zM180 123h-5v4h5v-4zM184 127h-4v5h4v-5zM184 132h-4v5h4v-5zM184 137h-4v5h4v-5zM180 137h-5v5h5v-5zM180 142h-5v5h5v-5zM165 147h-4v4h4v-4zM156 137h-5v5h5v-5zM156 132h-5v5h5v-5zM161 132h-5v5h5v-5zM161 127h-5v5h5v-5zM156 123h-5v4h5v-4zM156 127h-5v5h5v-5zM161 137h-5v5h5v-5zM161 147h-5v4h5v-4zM156 147h-5v4h5v-4zM151 147h-5v4h5v-4zM151 151h-5v5h5v-5zM146 151h-5v5h5v-5zM141 151h-4v5h4v-5zM146 147h-5v4h5v-4zM156 151h-5v5h5v-5zM161 151h-5v5h5v-5zM184 151h-4v5h4v-5zM189 151h-5v5h5v-5zM194 151h-5v5h5v-5zM199 151h-5v5h5v-5zM194 147h-5v4h5v-4zM189 147h-5v4h5v-4zM189 142h-5v5h5v-5zM184 142h-4v5h4v-5zM199 147h-5v4h5v-4zM189 137h-5v5h5v-5zM189 132h-5v5h5v-5zM189 127h-5v5h5v-5zM189 123h-5v4h5v-4zM189 118h-5v5h5v-5zM184 118h-4v5h4v-5zM184 123h-4v4h4v-4zM156 113h-5v5h5v-5zM156 118h-5v5h5v-5zM151 123h-5v4h5v-4zM151 127h-5v5h5v-5zM194 132h-5v5h5v-5zM194 137h-5v5h5v-5zM199 137h-5v5h5v-5zM146 142h-5v5h5v-5zM151 137h-5v5h5v-5z" fill="#0ED1EF" fill-opacity=".1"/><path d="M93 65h-4v5h4v-5zM84 89h-5v5h5v-5zM242 113h-5v5h5v-5zM232 84h-4v5h4v-5zM199 3h-5v5h5V3zM122 3h-5v5h5V3zM175 108h-5v5h5v-5zM175 156h-5v5h5v-5zM175 151h-5v5h5v-5zM175 147h-5v4h5v-4zM175 142h-5v5h5v-5zM175 137h-5v5h5v-5zM175 132h-5v5h5v-5zM175 127h-5v5h5v-5zM175 123h-5v4h5v-4zM175 118h-5v5h5v-5zM175 113h-5v5h5v-5zM194 161h-5v5h5v-5zM199 166h-5v4h5v-4z" fill="#0ED1EF"/><path d="M165 36h-4v5h4v-5zM170 36h-5v5h5v-5zM175 36h-5v5h5v-5zM180 36h-5v5h5v-5zM184 36h-4v5h4v-5zM189 36h-5v5h5v-5zM194 36h-5v5h5v-5zM199 36h-5v5h5v-5zM161 27h-5v5h5v-5zM161 32h-5v4h5v-4zM161 36h-5v5h5v-5zM204 41h-5v5h5v-5zM199 41h-5v5h5v-5zM194 41h-5v5h5v-5zM189 41h-5v5h5v-5zM184 41h-4v5h4v-5zM180 41h-5v5h5v-5zM175 41h-5v5h5v-5zM170 41h-5v5h5v-5zM165 41h-4v5h4v-5zM161 41h-5v5h5v-5z" fill="#161C27"/><path d="M165 113h-4v5h4v-5zM165 108h-4v5h4v-5zM180 113h-5v5h5v-5zM180 108h-5v5h5v-5zM184 108h-4v5h4v-5zM189 108h-5v5h5v-5zM156 108h-5v5h5v-5zM161 113h-5v5h5v-5zM165 118h-4v5h4v-5zM180 118h-5v5h5v-5zM184 113h-4v5h4v-5zM161 108h-5v5h5v-5zM161 156h-5v5h5v-5zM165 156h-4v5h4v-5zM165 151h-4v5h4v-5zM180 151h-5v5h5v-5zM184 156h-4v5h4v-5zM180 156h-5v5h5v-5z" fill="#0ED1EF"/><path d="M194 99h-5v4h5v-4zM194 94h-5v5h5v-5zM199 94h-5v5h5v-5zM165 27h-4v5h4v-5zM170 27h-5v5h5v-5zM175 27h-5v5h5v-5zM180 27h-5v5h5v-5zM184 27h-4v5h4v-5zM189 27h-5v5h5v-5zM194 27h-5v5h5v-5zM199 27h-5v5h5v-5zM170 32h-5v4h5v-4zM165 32h-4v4h4v-4zM194 32h-5v4h5v-4zM199 32h-5v4h5v-4z" fill="#193240"/><path d="M137 166h-5v4h5v-4zM141 166h-4v4h4v-4zM213 166h-5v4h5v-4zM208 166h-4v4h4v-4zM204 166h-5v4h5v-4zM132 166h-5v4h5v-4zM146 161h-5v5h5v-5zM199 161h-5v5h5v-5zM127 166h-5v4h5v-4zM218 166h-5v4h5v-4z" fill="#0ED1EF"/><path d="M137 170h-5v5h5v-5z" fill="#0ED1EF" fill-opacity=".3"/><path d="M141 175h-4v5h4v-5zM208 175h-4v5h4v-5zM204 175h-5v5h5v-5zM199 175h-5v5h5v-5z" fill="#0ED1EF" fill-opacity=".2"/><path d="M161 75h-5v5h5v-5zM161 70h-5v5h5v-5zM161 65h-5v5h5v-5zM165 65h-4v5h4v-5zM175 80h-5v4h5v-4zM175 75h-5v5h5v-5zM180 80h-5v4h5v-4zM180 84h-5v5h5v-5zM175 84h-5v5h5v-5zM170 84h-5v5h5v-5zM170 80h-5v4h5v-4zM189 80h-5v4h5v-4zM180 75h-5v5h5v-5zM189 94h-5v5h5v-5zM184 94h-4v5h4v-5zM180 94h-5v5h5v-5zM175 94h-5v5h5v-5zM170 94h-5v5h5v-5zM165 94h-4v5h4v-5zM161 94h-5v5h5v-5zM189 99h-5v4h5v-4zM184 99h-4v4h4v-4zM180 99h-5v4h5v-4zM175 99h-5v4h5v-4zM161 99h-5v4h5v-4zM165 99h-4v4h4v-4zM170 99h-5v4h5v-4zM213 60h-5v5h5v-5zM208 60h-4v5h4v-5zM208 56h-4v4h4v-4zM122 80h-5v4h5v-4zM122 84h-5v5h5v-5zM117 84h-4v5h4v-5zM122 89h-5v5h5v-5zM117 89h-4v5h4v-5zM113 75h-5v5h5v-5zM117 75h-4v5h4v-5zM122 75h-5v5h5v-5zM194 46h-5v5h5v-5zM189 46h-5v5h5v-5zM184 46h-4v5h4v-5zM180 46h-5v5h5v-5zM175 46h-5v5h5v-5zM170 46h-5v5h5v-5zM165 46h-4v5h4v-5zM161 46h-5v5h5v-5zM156 46h-5v5h5v-5zM156 22h-5v5h5v-5zM156 27h-5v5h5v-5zM156 32h-5v4h5v-4zM156 36h-5v5h5v-5zM156 41h-5v5h5v-5zM184 17h-4v5h4v-5zM141 17h-4v5h4v-5zM146 17h-5v5h5v-5zM151 13h-5v4h5v-4zM189 17h-5v5h5v-5z" fill="#2E6DE4"/><path d="M170 108h-5v5h5v-5zM175 108h-5v5h5v-5zM180 108h-5v5h5v-5zM165 108h-4v5h4v-5zM170 113h-5v5h5v-5zM175 113h-5v5h5v-5zM184 108h-4v5h4v-5zM160 108h-4v5h4v-5zM170 156h-5v5h5v-5zM170 161h-5v5h5v-5zM165 161h-4v5h4v-5zM175 161h-5v5h5v-5zM180 161h-5v5h5v-5zM175 156h-5v5h5v-5zM175 123h-5v4h5v-4zM175 127h-5v5h5v-5zM175 132h-5v5h5v-5zM175 137h-5v5h5v-5zM175 142h-5v5h5v-5zM175 147h-5v4h5v-4zM175 151h-5v5h5v-5zM184 161h-4v5h4v-5zM160 161h-4v5h4v-5z" fill="#fff" fill-opacity=".3"/><path d="M156 103h-5v5h5v-5zM160 103h-4v5h4v-5zM165 103h-4v5h4v-5zM170 103h-5v5h5v-5zM175 103h-5v5h5v-5zM180 103h-5v5h5v-5zM184 103h-4v5h4v-5zM189 103h-5v5h5v-5zM194 103h-5v5h5v-5zM175 99h-5v4h5v-4zM180 99h-5v4h5v-4zM184 99h-4v4h4v-4zM189 99h-5v4h5v-4zM180 94h-5v5h5v-5zM184 94h-4v5h4v-5z" fill="#0ED1EF" fill-opacity=".3"/><path d="M156 99h-5v4h5v-4zM156 94h-5v5h5v-5zM160 99h-4v4h4v-4zM165 99h-4v4h4v-4zM170 99h-5v4h5v-4zM170 94h-5v5h5v-5zM175 94h-5v5h5v-5z" fill="#0ED1EF" fill-opacity=".4"/><path d="M165 60h-4v5h4v-5zM170 60h-5v5h5v-5zM175 60h-5v5h5v-5zM175 65h-5v5h5v-5zM175 70h-5v5h5v-5zM180 70h-5v5h5v-5zM184 70h-4v5h4v-5zM189 70h-5v5h5v-5zM189 75h-5v5h5v-5zM194 75h-5v5h5v-5zM194 80h-5v4h5v-4zM194 70h-5v5h5v-5zM194 65h-5v5h5v-5zM189 65h-5v5h5v-5zM184 65h-4v5h4v-5zM180 65h-5v5h5v-5zM184 60h-4v5h4v-5zM189 60h-5v5h5v-5zM194 60h-5v5h5v-5zM199 60h-5v5h5v-5zM199 65h-5v5h5v-5zM199 70h-5v5h5v-5zM199 75h-5v5h5v-5zM127 103h-5v5h5v-5zM132 103h-5v5h5v-5zM132 108h-5v5h5v-5zM132 113h-5v5h5v-5zM132 118h-5v5h5v-5zM137 113h-5v5h5v-5zM127 113h-5v5h5v-5zM127 108h-5v5h5v-5zM127 118h-5v5h5v-5zM122 103h-5v5h5v-5zM122 99h-5v4h5v-4z" fill="#0ED1EF" fill-opacity=".3"/></g></g><defs><clipPath id="clip0_4505_17765"><path fill="#fff" transform="translate(79 2.994)" d="M0 0h163v177.006H0z"/></clipPath></defs></svg>