<svg xmlns="http://www.w3.org/2000/svg" width="320" height="180" fill="none" shape-rendering="crispEdges" image-rendering="pixelated"><mask id="a" style="mask-type:alpha" maskUnits="userSpaceOnUse" x="0" y="0" width="320" height="180"><path fill="#D9D9D9" d="M0 0h320v180H0z"/></mask><g mask="url(#a)"><mask id="b" style="mask-type:alpha" maskUnits="userSpaceOnUse" x="61" y="2" width="199" height="175"><path fill="#D9D9D9" d="M61 2.971h198.199V177H61z"/></mask><g clip-path="url(#clip0_4505_18513)"><path d="M168 19h-5v6h5v-6zM173 19h-5v6h5v-6zM179 19h-6v6h6v-6zM152 25h-5v5h5v-5zM157 25h-5v5h5v-5z" fill="#2E6DE4"/><path d="M163 25h-6v5h6v-5zM168 25h-5v5h5v-5z" fill="#1E3548"/><path d="M173 25h-5v5h5v-5zM184 25h-5v5h5v-5zM189 25h-5v5h5v-5zM194 25h-5v5h5v-5zM200 25h-6v5h6v-5zM205 25h-5v5h5v-5z" fill="#2E6DE4"/><path d="M147 30h-5v5h5v-5zM152 30h-5v5h5v-5zM157 30h-5v5h5v-5zM163 30h-6v5h6v-5z" fill="#1E3548"/><path d="M168 30h-5v5h5v-5z" fill="#223F6A"/><path d="M173 30h-5v5h5v-5z" fill="#2E6DE4"/><path d="M179 30h-6v5h6v-5zM184 30h-5v5h5v-5zM189 30h-5v5h5v-5zM194 30h-5v5h5v-5zM200 30h-6v5h6v-5zM205 30h-5v5h5v-5zM210 30h-5v5h5v-5zM215 30h-5v5h5v-5z" fill="#141412"/><path d="M221 30h-6v5h6v-5z" fill="#151512"/><path d="M147 35h-5v5h5v-5z" fill="#1E3548"/><path d="M152 35h-5v5h5v-5zM157 35h-5v5h5v-5z" fill="#252F32"/><path d="M163 35h-6v5h6v-5zM168 35h-5v5h5v-5z" fill="#1E3548"/><path d="M173 35h-5v5h5v-5z" fill="#2E6DE4"/><path d="M184 35h-5v5h5v-5zM189 35h-5v5h5v-5zM194 35h-5v5h5v-5zM200 35h-6v5h6v-5zM205 35h-5v5h5v-5zM210 35h-5v5h5v-5zM215 35h-5v5h5v-5z" fill="#0ED1EF"/><path d="M221 35h-6v5h6v-5z" fill="#141412"/><path d="M147 40h-5v6h5v-6z" fill="#0E1615"/><path d="M152 40h-5v6h5v-6zM157 40h-5v6h5v-6z" fill="#131A19"/><path d="M163 40h-6v6h6v-6zM168 40h-5v6h5v-6z" fill="#1E3548"/><path d="M173 40h-5v6h5v-6z" fill="#2E6DE4"/><path d="M184 40h-5v6h5v-6zM189 40h-5v6h5v-6zM194 40h-5v6h5v-6zM200 40h-6v6h6v-6zM205 40h-5v6h5v-6zM210 40h-5v6h5v-6zM215 40h-5v6h5v-6z" fill="#0ED1EF"/><path d="M221 40h-6v6h6v-6z" fill="#141412"/><path d="M147 46h-5v5h5v-5z" fill="#1E3548"/><path d="M152 46h-5v5h5v-5z" fill="#131A19"/><path d="M157 46h-5v5h5v-5z" fill="#252F32"/><path d="M163 46h-6v5h6v-5zM168 46h-5v5h5v-5z" fill="#1E3548"/><path d="M173 46h-5v5h5v-5z" fill="#2E6DE4"/><path d="M221 46h-6v5h6v-5z" fill="#141412"/><path d="M147 51h-5v5h5v-5z" fill="#1E3548"/><path d="M152 51h-5v5h5v-5zM157 51h-5v5h5v-5z" fill="#252F32"/><path d="M163 51h-6v5h6v-5zM168 51h-5v5h5v-5z" fill="#1E3548"/><path d="M173 51h-5v5h5v-5z" fill="#2E6DE4"/><path d="M179 51h-6v5h6v-5zM184 51h-5v5h5v-5zM189 51h-5v5h5v-5zM194 51h-5v5h5v-5zM200 51h-6v5h6v-5zM205 51h-5v5h5v-5z" fill="#141412"/><path d="M210 51h-5v5h5v-5zM215 51h-5v5h5v-5z" fill="#151512"/><path d="M221 51h-6v5h6v-5z" fill="#141412"/><path d="M121 56h-6v5h6v-5z" fill="#1E3548"/><path d="M126 56h-5v5h5v-5z" fill="#252F32"/><path d="M147 56h-5v5h5v-5z" fill="#1E3548"/><path d="M152 56h-5v5h5v-5z" fill="#252F32"/><path d="M157 56h-5v5h5v-5z" fill="#131A19"/><path d="M163 56h-6v5h6v-5zM168 56h-5v5h5v-5z" fill="#1E3548"/><path d="M173 56h-5v5h5v-5z" fill="#2E5FAD"/><path d="M231 56h-5v5h5v-5z" fill="#2E6DE4"/><path d="M115 61h-5v6h5v-6z" fill="#1E3548"/><path d="M121 61h-6v6h6v-6z" fill="#223F6A"/><path d="M126 61h-5v6h5v-6z" fill="#2E5FAD"/><path d="M131 61h-5v6h5v-6zM136 61h-5v6h5v-6z" fill="#2E6DE4"/><path d="M147 61h-5v6h5v-6z" fill="#1B2221"/><path d="M152 61h-5v6h5v-6z" fill="#252F32"/><path d="M157 61h-5v6h5v-6zM163 61h-6v6h6v-6z" fill="#1B2221"/><path d="M168 61h-5v6h5v-6z" fill="#131A19"/><path d="M173 61h-5v6h5v-6z" fill="#1E3548"/><path d="M179 61h-6v6h6v-6zM184 61h-5v6h5v-6zM189 61h-5v6h5v-6zM194 61h-5v6h5v-6zM200 61h-6v6h6v-6zM205 61h-5v6h5v-6zM210 61h-5v6h5v-6zM215 61h-5v6h5v-6zM221 61h-6v6h6v-6z" fill="#223F6A"/><path d="M226 61h-5v6h5v-6z" fill="#1B2221"/><path d="M231 61h-5v6h5v-6zM236 61h-5v6h5v-6z" fill="#2E6DE4"/><path d="M115 67h-5v5h5v-5z" fill="#1E3548"/><path d="M121 67h-6v5h6v-5z" fill="#223F6A"/><path d="M126 67h-5v5h5v-5z" fill="#2E5FAD"/><path d="M131 67h-5v5h5v-5zM136 67h-5v5h5v-5z" fill="#2E6DE4"/><path d="M147 67h-5v5h5v-5zM152 67h-5v5h5v-5z" fill="#1B2221"/><path d="M157 67h-5v5h5v-5z" fill="#1E3548"/><path d="M163 67h-6v5h6v-5zM168 67h-5v5h5v-5z" fill="#0E1615"/><path d="M173 67h-5v5h5v-5zM179 67h-6v5h6v-5zM184 67h-5v5h5v-5zM189 67h-5v5h5v-5zM194 67h-5v5h5v-5zM200 67h-6v5h6v-5zM205 67h-5v5h5v-5zM210 67h-5v5h5v-5zM215 67h-5v5h5v-5z" fill="#131A19"/><path d="M221 67h-6v5h6v-5z" fill="#1B2221"/><path d="M226 67h-5v5h5v-5z" fill="#252F32"/><path d="M231 67h-5v5h5v-5z" fill="#2E6DE4"/><path d="M236 67h-5v5h5v-5z" fill="#131A19"/><path d="M242 67h-6v5h6v-5z" fill="#434946"/><path d="M110 72h-5v5h5v-5z" fill="#1B2221"/><path d="M115 72h-5v5h5v-5z" fill="#1E3548"/><path d="M121 72h-6v5h6v-5z" fill="#223F6A"/><path d="M126 72h-5v5h5v-5z" fill="#2E5FAD"/><path d="M131 72h-5v5h5v-5zM136 72h-5v5h5v-5zM142 72h-6v5h6v-5z" fill="#2E6DE4"/><path d="M147 72h-5v5h5v-5zM152 72h-5v5h5v-5z" fill="#252F32"/><path d="M157 72h-5v5h5v-5zM163 72h-6v5h6v-5z" fill="#1E3548"/><path d="M168 72h-5v5h5v-5z" fill="#223F6A"/><path d="M173 72h-5v5h5v-5z" fill="#1E3548"/><path d="M179 72h-6v5h6v-5zM184 72h-5v5h5v-5z" fill="#131A19"/><path d="M189 72h-5v5h5v-5zM194 72h-5v5h5v-5z" fill="#1B2221"/><path d="M200 72h-6v5h6v-5zM205 72h-5v5h5v-5z" fill="#131A19"/><path d="M210 72h-5v5h5v-5z" fill="#223F6A"/><path d="M215 72h-5v5h5v-5z" fill="#2E5FAD"/><path d="M221 72h-6v5h6v-5zM226 72h-5v5h5v-5z" fill="#252F32"/><path d="M231 72h-5v5h5v-5z" fill="#2E6DE4"/><path d="M236 72h-5v5h5v-5z" fill="#131A19"/><path d="M242 72h-6v5h6v-5z" fill="#252F32"/><path d="M110 77h-5v5h5v-5z" fill="#1B2221"/><path d="M115 77h-5v5h5v-5z" fill="#1E3548"/><path d="M121 77h-6v5h6v-5z" fill="#2E5FAD"/><path d="M126 77h-5v5h5v-5zM131 77h-5v5h5v-5zM136 77h-5v5h5v-5zM142 77h-6v5h6v-5z" fill="#2E6DE4"/><path d="M147 77h-5v5h5v-5z" fill="#131A19"/><path d="M152 77h-5v5h5v-5z" fill="#252F32"/><path d="M157 77h-5v5h5v-5z" fill="#1E3548"/><path d="M163 77h-6v5h6v-5z" fill="#2E5FAD"/><path d="M168 77h-5v5h5v-5zM173 77h-5v5h5v-5z" fill="#2E6DE4"/><path d="M179 77h-6v5h6v-5zM184 77h-5v5h5v-5zM215 77h-5v5h5v-5z" fill="#2E5FAD"/><path d="M221 77h-6v5h6v-5z" fill="#1B2221"/><path d="M226 77h-5v5h5v-5z" fill="#252F32"/><path d="M231 77h-5v5h5v-5z" fill="#223F6A"/><path d="M236 77h-5v5h5v-5zM242 77h-6v5h6v-5z" fill="#0E1615"/><path d="M115 82h-5v6h5v-6z" fill="#131A19"/><path d="M121 82h-6v6h6v-6z" fill="#1E3548"/><path d="M126 82h-5v6h5v-6zM131 82h-5v6h5v-6zM136 82h-5v6h5v-6z" fill="#2E6DE4"/><path d="M142 82h-6v6h6v-6z" fill="#223F6A"/><path d="M147 82h-5v6h5v-6z" fill="#131A19"/><path d="M152 82h-5v6h5v-6z" fill="#0E1615"/><path d="M157 82h-5v6h5v-6z" fill="#1E3548"/><path d="M163 82h-6v6h6v-6zM168 82h-5v6h5v-6z" fill="#2E5FAD"/><path d="M173 82h-5v6h5v-6zM184 82h-5v6h5v-6zM189 82h-5v6h5v-6zM194 82h-5v6h5v-6zM200 82h-6v6h6v-6zM205 82h-5v6h5v-6z" fill="#2E6DE4"/><path d="M215 82h-5v6h5v-6z" fill="#223F6A"/><path d="M221 82h-6v6h6v-6z" fill="#131A19"/><path d="M226 82h-5v6h5v-6zM231 82h-5v6h5v-6z" fill="#252F32"/><path d="M236 82h-5v6h5v-6zM242 82h-6v6h6v-6z" fill="#2E6DE4"/><path d="M247 82h-5v6h5v-6z" fill="#2E5FAD"/><path d="M121 88h-6v5h6v-5zM126 88h-5v5h5v-5zM131 88h-5v5h5v-5z" fill="#1B2221"/><path d="M136 88h-5v5h5v-5z" fill="#131A19"/><path d="M147 88h-5v5h5v-5zM152 88h-5v5h5v-5z" fill="#252F32"/><path d="M157 88h-5v5h5v-5z" fill="#1E3548"/><path d="M163 88h-6v5h6v-5zM168 88h-5v5h5v-5zM173 88h-5v5h5v-5z" fill="#2E5FAD"/><path d="M189 88h-5v5h5v-5zM194 88h-5v5h5v-5z" fill="#2E6DE4"/><path d="M200 88h-6v5h6v-5z" fill="#1E3548"/><path d="M205 88h-5v5h5v-5z" fill="#2E6DE4"/><path d="M215 88h-5v5h5v-5z" fill="#223F6A"/><path d="M221 88h-6v5h6v-5zM226 88h-5v5h5v-5z" fill="#252F32"/><path d="M231 88h-5v5h5v-5zM236 88h-5v5h5v-5zM242 88h-6v5h6v-5z" fill="#1B2221"/><path d="M121 93h-6v5h6v-5zM126 93h-5v5h5v-5z" fill="#0E1615"/><path d="M131 93h-5v5h5v-5z" fill="#434946"/><path d="M147 93h-5v5h5v-5z" fill="#1B2221"/><path d="M152 93h-5v5h5v-5z" fill="#252F32"/><path d="M157 93h-5v5h5v-5z" fill="#1E3548"/><path d="M163 93h-6v5h6v-5zM173 93h-5v5h5v-5zM184 93h-5v5h5v-5z" fill="#2E5FAD"/><path d="M210 93h-5v5h5v-5z" fill="#131A19"/><path d="M215 93h-5v5h5v-5z" fill="#2E5FAD"/><path d="M226 93h-5v5h5v-5z" fill="#0E1615"/><path d="M231 93h-5v5h5v-5z" fill="#131A19"/><path d="M236 93h-5v5h5v-5z" fill="#434946"/><path d="M242 93h-6v5h6v-5z" fill="#252F32"/><path d="M121 98h-6v5h6v-5zM126 98h-5v5h5v-5z" fill="#131A19"/><path d="M131 98h-5v5h5v-5z" fill="#0E1615"/><path d="M147 98h-5v5h5v-5z" fill="#1E3548"/><path d="M152 98h-5v5h5v-5zM157 98h-5v5h5v-5zM163 98h-6v5h6v-5z" fill="#252F32"/><path d="M168 98h-5v5h5v-5z" fill="#1B2221"/><path d="M173 98h-5v5h5v-5z" fill="#1E3548"/><path d="M179 98h-6v5h6v-5zM210 98h-5v5h5v-5zM215 98h-5v5h5v-5z" fill="#223F6A"/><path d="M231 98h-5v5h5v-5z" fill="#0E1615"/><path d="M236 98h-5v5h5v-5z" fill="#131A19"/><path d="M242 98h-6v5h6v-5z" fill="#1B2221"/><path d="M110 103h-5v6h5v-6z" fill="#1E3548"/><path d="M115 103h-5v6h5v-6z" fill="#2E5FAD"/><path d="M121 103h-6v6h6v-6z" fill="#2E6DE4"/><path d="M152 103h-5v6h5v-6zM157 103h-5v6h5v-6z" fill="#0E1615"/><path d="M163 103h-6v6h6v-6zM168 103h-5v6h5v-6z" fill="#131A19"/><path d="M173 103h-5v6h5v-6z" fill="#0E1615"/><path d="M179 103h-6v6h6v-6zM184 103h-5v6h5v-6z" fill="#131A19"/><path d="M189 103h-5v6h5v-6zM194 103h-5v6h5v-6z" fill="#252F32"/><path d="M200 103h-6v6h6v-6z" fill="#434946"/><path d="M205 103h-5v6h5v-6z" fill="#0E1615"/><path d="M210 103h-5v6h5v-6z" fill="#1B2221"/><path d="M231 103h-5v6h5v-6zM236 103h-5v6h5v-6z" fill="#223F6A"/><path d="M242 103h-6v6h6v-6z" fill="#2E6DE4"/><path d="M110 109h-5v5h5v-5z" fill="#1E3548"/><path d="M115 109h-5v5h5v-5z" fill="#2E5FAD"/><path d="M163 109h-6v5h6v-5z" fill="#131A19"/><path d="M168 109h-5v5h5v-5z" fill="#0E1615"/><path d="M173 109h-5v5h5v-5z" fill="#131A19"/><path d="M179 109h-6v5h6v-5z" fill="#1B2221"/><path d="M184 109h-5v5h5v-5z" fill="#131A19"/><path d="M189 109h-5v5h5v-5zM194 109h-5v5h5v-5zM200 109h-6v5h6v-5z" fill="#252F32"/><path d="M205 109h-5v5h5v-5z" fill="#1B2221"/><path d="M210 109h-5v5h5v-5z" fill="#0E1615"/><path d="M231 109h-5v5h5v-5z" fill="#223F6A"/><path d="M236 109h-5v5h5v-5z" fill="#2E5FAD"/><path d="M242 109h-6v5h6v-5z" fill="#1B2221"/><path d="M247 109h-5v5h5v-5z" fill="#2E6DE4"/><path d="M257 109h-5v5h5v-5z" fill="#1E3548"/><path d="M110 114h-5v5h5v-5z" fill="#223F6A"/><path d="M115 114h-5v5h5v-5z" fill="#1E3548"/><path d="M121 114h-6v5h6v-5z" fill="#223F6A"/><path d="M126 114h-5v5h5v-5z" fill="#1E3548"/><path d="M131 114h-5v5h5v-5zM136 114h-5v5h5v-5z" fill="#2E6DE4"/><path d="M163 114h-6v5h6v-5z" fill="#131A19"/><path d="M168 114h-5v5h5v-5z" fill="#1B2221"/><path d="M173 114h-5v5h5v-5z" fill="#0E1615"/><path d="M179 114h-6v5h6v-5zM184 114h-5v5h5v-5z" fill="#1B2221"/><path d="M189 114h-5v5h5v-5zM194 114h-5v5h5v-5zM200 114h-6v5h6v-5z" fill="#252F32"/><path d="M205 114h-5v5h5v-5zM210 114h-5v5h5v-5zM215 114h-5v5h5v-5z" fill="#1B2221"/><path d="M231 114h-5v5h5v-5z" fill="#1E3548"/><path d="M236 114h-5v5h5v-5z" fill="#223F6A"/><path d="M242 114h-6v5h6v-5z" fill="#1B2221"/><path d="M247 114h-5v5h5v-5z" fill="#2E6DE4"/><path d="M110 119h-5v5h5v-5z" fill="#223F6A"/><path d="M115 119h-5v5h5v-5z" fill="#252F32"/><path d="M121 119h-6v5h6v-5z" fill="#1B2221"/><path d="M126 119h-5v5h5v-5z" fill="#252F32"/><path d="M131 119h-5v5h5v-5z" fill="#0E1615"/><path d="M136 119h-5v5h5v-5z" fill="#1E3548"/><path d="M157 119h-5v5h5v-5z" fill="#0E1615"/><path d="M163 119h-6v5h6v-5zM168 119h-5v5h5v-5z" fill="#252F32"/><path d="M173 119h-5v5h5v-5z" fill="#1B2221"/><path d="M179 119h-6v5h6v-5z" fill="#131A19"/><path d="M184 119h-5v5h5v-5zM189 119h-5v5h5v-5z" fill="#1B2221"/><path d="M194 119h-5v5h5v-5z" fill="#131A19"/><path d="M200 119h-6v5h6v-5z" fill="#0E1615"/><path d="M205 119h-5v5h5v-5z" fill="#131A19"/><path d="M210 119h-5v5h5v-5zM215 119h-5v5h5v-5zM236 119h-5v5h5v-5zM242 119h-6v5h6v-5zM247 119h-5v5h5v-5z" fill="#252F32"/><path d="M252 119h-5v5h5v-5z" fill="#1B2221"/><path d="M257 119h-5v5h5v-5zM110 124h-5v6h5v-6z" fill="#252F32"/><path d="M115 124h-5v6h5v-6z" fill="#1B2221"/><path d="M121 124h-6v6h6v-6z" fill="#131A19"/><path d="M126 124h-5v6h5v-6z" fill="#434946"/><path d="M131 124h-5v6h5v-6z" fill="#131A19"/><path d="M136 124h-5v6h5v-6z" fill="#252F32"/><path d="M152 124h-5v6h5v-6z" fill="#000"/><path d="M157 124h-5v6h5v-6z" fill="#131A19"/><path d="M163 124h-6v6h6v-6zM168 124h-5v6h5v-6zM173 124h-5v6h5v-6zM205 124h-5v6h5v-6zM210 124h-5v6h5v-6z" fill="#1B2221"/><path d="M215 124h-5v6h5v-6z" fill="#131A19"/><path d="M242 124h-6v6h6v-6z" fill="#1B2221"/><path d="M247 124h-5v6h5v-6z" fill="#131A19"/><path d="M252 124h-5v6h5v-6z" fill="#1B2221"/><path d="M115 130h-5v5h5v-5z" fill="#0E1615"/><path d="M121 130h-6v5h6v-5z" fill="#131A19"/><path d="M126 130h-5v5h5v-5z" fill="#434946"/><path d="M131 130h-5v5h5v-5z" fill="#000"/><path d="M136 130h-5v5h5v-5zM152 130h-5v5h5v-5z" fill="#131A19"/><path d="M157 130h-5v5h5v-5z" fill="#434946"/><path d="M163 130h-6v5h6v-5z" fill="#252F32"/><path d="M168 130h-5v5h5v-5zM173 130h-5v5h5v-5z" fill="#434946"/><path d="M205 130h-5v5h5v-5z" fill="#0E1615"/><path d="M210 130h-5v5h5v-5z" fill="#434946"/><path d="M215 130h-5v5h5v-5z" fill="#252F32"/><path d="M221 130h-6v5h6v-5z" fill="#434946"/><path d="M242 130h-6v5h6v-5zM247 130h-5v5h5v-5z" fill="#131A19"/><path d="M252 130h-5v5h5v-5z" fill="#1B2221"/><path d="M115 135h-5v5h5v-5z" fill="#131A19"/><path d="M121 135h-6v5h6v-5z" fill="#1B2221"/><path d="M126 135h-5v5h5v-5z" fill="#131A19"/><path d="M157 135h-5v5h5v-5z" fill="#1B2221"/><path d="M173 135h-5v5h5v-5z" fill="#434946"/><path d="M205 135h-5v5h5v-5z" fill="#131A19"/><path d="M210 135h-5v5h5v-5z" fill="#434946"/><path d="M215 135h-5v5h5v-5z" fill="#131A19"/><path d="M221 135h-6v5h6v-5z" fill="#252F32"/><path d="M242 135h-6v5h6v-5zM247 135h-5v5h5v-5zM121 140h-6v5h6v-5zM126 140h-5v5h5v-5z" fill="#131A19"/><path d="M147 140h-5v5h5v-5zM152 140h-5v5h5v-5z" fill="#1E3548"/><path d="M157 140h-5v5h5v-5z" fill="#223F6A"/><path d="M205 140h-5v5h5v-5z" fill="#000"/><path d="M210 140h-5v5h5v-5zM215 140h-5v5h5v-5z" fill="#131A19"/><path d="M221 140h-6v5h6v-5z" fill="#223F6A"/><path d="M147 145h-5v6h5v-6zM152 145h-5v6h5v-6z" fill="#1E3548"/><path d="M157 145h-5v6h5v-6z" fill="#2E5FAD"/><path d="M163 145h-6v6h6v-6z" fill="#434946"/><path d="M205 145h-5v6h5v-6z" fill="#1E3548"/><path d="M210 145h-5v6h5v-6z" fill="#252F32"/><path d="M215 145h-5v6h5v-6zM147 151h-5v5h5v-5zM152 151h-5v5h5v-5z" fill="#1E3548"/><path d="M157 151h-5v5h5v-5z" fill="#2E5FAD"/><path d="M163 151h-6v5h6v-5z" fill="#1B2221"/><path d="M168 151h-5v5h5v-5z" fill="#252F32"/><path d="M173 151h-5v5h5v-5z" fill="#131A19"/><path d="M205 151h-5v5h5v-5zM210 151h-5v5h5v-5zM215 151h-5v5h5v-5z" fill="#1E3548"/><path d="M221 151h-6v5h6v-5zM231 151h-5v5h5v-5z" fill="#2E5FAD"/><path d="M142 156h-6v5h6v-5zM147 156h-5v5h5v-5zM152 156h-5v5h5v-5z" fill="#1E3548"/><path d="M157 156h-5v5h5v-5z" fill="#2E5FAD"/><path d="M163 156h-6v5h6v-5zM168 156h-5v5h5v-5z" fill="#223F6A"/><path d="M210 156h-5v5h5v-5z" fill="#1E3548"/><path d="M215 156h-5v5h5v-5z" fill="#223F6A"/><path d="M221 156h-6v5h6v-5z" fill="#1E3548"/><path d="M226 156h-5v5h5v-5zM231 156h-5v5h5v-5z" fill="#2E5FAD"/><path d="M179 35h-6v5h6v-5zM179 40h-6v6h6v-6zM179 46h-6v5h6v-5zM215 46h-5v5h5v-5zM210 46h-5v5h5v-5zM205 46h-5v5h5v-5zM200 46h-6v5h6v-5zM194 46h-5v5h5v-5zM189 46h-5v5h5v-5zM184 46h-5v5h5v-5z" fill="#141412"/><path d="M179 25h-6v5h6v-5z" fill="#2E6DE4"/><path d="M131 109h-5v5h5v-5z" fill="#407EF2"/><path d="M210 19h-5v6h5v-6zM205 19h-5v6h5v-6zM200 19h-6v6h6v-6zM194 19h-5v6h5v-6zM189 19h-5v6h5v-6zM184 19h-5v6h5v-6zM226 25h-5v5h5v-5zM221 25h-6v5h6v-5zM215 25h-5v5h5v-5zM210 25h-5v5h5v-5zM226 51h-5v5h5v-5zM226 46h-5v5h5v-5zM226 40h-5v6h5v-6zM226 35h-5v5h5v-5zM226 30h-5v5h5v-5zM247 77h-5v5h5v-5zM247 72h-5v5h5v-5zM247 67h-5v5h5v-5zM247 61h-5v6h5v-6zM242 61h-6v6h6v-6zM242 56h-6v5h6v-5zM236 56h-5v5h5v-5zM252 114h-5v5h5v-5zM252 109h-5v5h5v-5zM252 103h-5v6h5v-6zM247 103h-5v6h5v-6zM257 114h-5v5h5v-5zM221 145h-6v6h6v-6zM226 145h-5v6h5v-6zM226 140h-5v5h5v-5zM226 135h-5v5h5v-5zM168 145h-5v6h5v-6zM163 140h-6v5h6v-5zM142 67h-6v5h6v-5zM142 61h-6v6h6v-6zM142 56h-6v5h6v-5zM136 56h-5v5h5v-5zM131 56h-5v5h5v-5zM126 109h-5v5h5v-5zM126 103h-5v6h5v-6zM131 103h-5v6h5v-6zM136 103h-5v6h5v-6zM121 109h-6v5h6v-5z" fill="#689AF8"/><path d="M200 56h-6v5h6v-5zM194 56h-5v5h5v-5zM189 56h-5v5h5v-5zM184 56h-5v5h5v-5zM179 56h-6v5h6v-5z" fill="#2E6DE4"/><path d="M226 56h-5v5h5v-5zM205 56h-5v5h5v-5zM210 56h-5v5h5v-5zM215 56h-5v5h5v-5zM221 56h-6v5h6v-5z" fill="#689AF8"/><path d="M184 98h-5v5h5v-5zM189 98h-5v5h5v-5zM189 93h-5v5h5v-5zM194 93h-5v5h5v-5zM200 93h-6v5h6v-5zM205 93h-5v5h5v-5zM205 98h-5v5h5v-5zM200 98h-6v5h6v-5zM194 98h-5v5h5v-5z" fill="#151512"/><path d="M136 166h-5v6h5v-6zM131 166h-5v6h5v-6zM126 166h-5v6h5v-6zM121 166h-6v6h6v-6zM115 166h-5v6h5v-6zM110 166h-5v6h5v-6zM115 172h-5v5h5v-5zM121 172h-6v5h6v-5zM131 172h-5v5h5v-5zM126 172h-5v5h5v-5zM257 172h-5v5h5v-5zM252 172h-5v5h5v-5zM205 172h-5v5h5v-5zM200 172h-6v5h6v-5zM194 172h-5v5h5v-5zM189 172h-5v5h5v-5zM184 172h-5v5h5v-5zM179 172h-6v5h6v-5zM200 166h-6v6h6v-6zM194 166h-5v6h5v-6zM189 166h-5v6h5v-6zM184 166h-5v6h5v-6zM242 166h-6v6h6v-6zM247 166h-5v6h5v-6zM247 172h-5v5h5v-5z" fill="#1C2330"/><path d="M205 156h-5v5h5v-5zM173 156h-5v5h5v-5zM152 166h-5v6h5v-6zM147 166h-5v6h5v-6zM142 166h-6v6h6v-6zM157 161h-5v5h5v-5zM226 166h-5v6h5v-6zM231 166h-5v6h5v-6zM236 166h-5v6h5v-6zM221 161h-6v5h6v-5z" fill="#0E1615"/><path d="M152 161h-5v5h5v-5zM147 161h-5v5h5v-5zM142 161h-6v5h6v-5zM173 161h-5v5h5v-5zM168 161h-5v5h5v-5zM163 161h-6v5h6v-5zM163 166h-6v6h6v-6zM157 166h-5v6h5v-6zM221 166h-6v6h6v-6zM215 166h-5v6h5v-6zM215 161h-5v5h5v-5zM210 161h-5v5h5v-5zM236 161h-5v5h5v-5zM231 161h-5v5h5v-5zM226 161h-5v5h5v-5z" fill="#21282C"/><path d="M168 166h-5v6h5v-6zM173 166h-5v6h5v-6zM179 166h-6v6h6v-6zM136 172h-5v5h5v-5zM142 172h-6v5h6v-5zM147 172h-5v5h5v-5zM152 172h-5v5h5v-5zM157 172h-5v5h5v-5zM163 172h-6v5h6v-5zM168 172h-5v5h5v-5zM173 172h-5v5h5v-5zM205 166h-5v6h5v-6zM210 166h-5v6h5v-6zM242 172h-6v5h6v-5zM236 172h-5v5h5v-5zM231 172h-5v5h5v-5zM226 172h-5v5h5v-5zM221 172h-6v5h6v-5zM215 172h-5v5h5v-5zM210 172h-5v5h5v-5z" fill="#161C27"/><path d="M210 88h-5v5h5v-5zM210 82h-5v6h5v-6zM210 77h-5v5h5v-5zM205 77h-5v5h5v-5zM200 77h-6v5h6v-5zM194 77h-5v5h5v-5zM189 77h-5v5h5v-5zM163 135h-6v5h6v-5z" fill="#689AF8"/><path d="M179 82h-6v6h6v-6zM179 93h-6v5h6v-5zM179 88h-6v5h6v-5zM184 88h-5v5h5v-5zM136 109h-5v5h5v-5z" fill="#2E6DE4"/><path d="M226 151h-5v5h5v-5zM173 145h-5v6h5v-6zM168 135h-5v5h5v-5zM168 140h-5v5h5v-5zM168 93h-5v5h5v-5z" fill="#2E5FAD"/><path d="M79 19h-6v6h6v-6zM84 19h-5v6h5v-6zM89 19h-5v6h5v-6zM94 19h-5v6h5v-6z" fill="#2E6DE4"/><path d="M100 19h-6v6h6v-6zM105 19h-5v6h5v-6z" fill="#689BF8"/><path d="M73 25h-5v5h5v-5z" fill="#2E5FAD"/><path d="M79 25h-6v5h6v-5z" fill="#161C27"/><path d="M84 25h-5v5h5v-5zM89 25h-5v5h5v-5zM94 25h-5v5h5v-5zM100 25h-6v5h6v-5z" fill="#2E6DE4"/><path d="M105 25h-5v5h5v-5zM110 25h-5v5h5v-5z" fill="#689BF8"/><path d="M68 30h-5v5h5v-5z" fill="#2E5FAD"/><path d="M73 30h-5v5h5v-5z" fill="#193240"/><path d="M79 30h-6v5h6v-5z" fill="#161C27"/><path d="M84 30h-5v5h5v-5z" fill="#2E6DE4"/><path d="M89 30h-5v5h5v-5zM94 30h-5v5h5v-5zM100 30h-6v5h6v-5zM105 30h-5v5h5v-5z" fill="#161C27"/><path d="M110 30h-5v5h5v-5z" fill="#689BF8"/><path d="M68 35h-5v5h5v-5z" fill="#193240"/><path d="M73 35h-5v5h5v-5zM79 35h-6v5h6v-5z" fill="#161C27"/><path d="M84 35h-5v5h5v-5z" fill="#2E6DE4"/><path d="M89 35h-5v5h5v-5z" fill="#161C27"/><path d="M94 35h-5v5h5v-5zM100 35h-6v5h6v-5z" fill="#0ED1EF"/><path d="M105 35h-5v5h5v-5z" fill="#161C27"/><path d="M110 35h-5v5h5v-5z" fill="#689BF8"/><path d="M68 40h-5v6h5v-6z" fill="#161C27"/><path d="M73 40h-5v6h5v-6z" fill="#193240"/><path d="M79 40h-6v6h6v-6z" fill="#161C27"/><path d="M84 40h-5v6h5v-6z" fill="#2E6DE4"/><path d="M89 40h-5v6h5v-6zM94 40h-5v6h5v-6zM100 40h-6v6h6v-6zM105 40h-5v6h5v-6z" fill="#161C27"/><path d="M110 40h-5v6h5v-6z" fill="#689AF8"/><path d="M73 46h-5v5h5v-5zM79 46h-6v5h6v-5zM84 46h-5v5h5v-5z" fill="#161C27"/><path d="M89 46h-5v5h5v-5zM94 46h-5v5h5v-5zM100 46h-6v5h6v-5zM105 46h-5v5h5v-5z" fill="#2E6DE4"/><path d="M73 51h-5v5h5v-5z" fill="#0ED1EF" fill-opacity=".1"/><path d="M79 51h-6v5h6v-5zM84 51h-5v5h5v-5zM89 51h-5v5h5v-5zM94 51h-5v5h5v-5zM100 51h-6v5h6v-5z" fill="#0ED1EF"/><path d="M79 56h-6v5h6v-5z" fill="#0ED1EF" fill-opacity=".1"/><path d="M84 56h-5v5h5v-5z" fill="#0ED1EF" fill-opacity=".3"/><path d="M89 56h-5v5h5v-5z" fill="#0ED1EF"/><path d="M94 56h-5v5h5v-5z" fill="#0ED1EF" fill-opacity=".3"/><path d="M100 56h-6v5h6v-5z" fill="#0ED1EF" fill-opacity=".1"/><path d="M84 61h-5v6h5v-6zM89 61h-5v6h5v-6zM94 61h-5v6h5v-6z" fill="#0ED1EF"/><path d="M79 67h-6v5h6v-5zM84 67h-5v5h5v-5z" fill="#0ED1EF" fill-opacity=".3"/><path d="M89 67h-5v5h5v-5z" fill="#0ED1EF"/><path d="M94 67h-5v5h5v-5zM84 72h-5v5h5v-5zM89 72h-5v5h5v-5zM94 72h-5v5h5v-5z" fill="#0ED1EF" fill-opacity=".3"/><path d="M84 77h-5v5h5v-5zM89 77h-5v5h5v-5zM94 77h-5v5h5v-5zM89 82h-5v6h5v-6zM105 51h-5v5h5v-5z" fill="#0ED1EF" fill-opacity=".1"/><path d="M184 40h-5v6h5v-6zM184 35h-5v5h5v-5zM189 35h-5v5h5v-5zM194 35h-5v5h5v-5zM200 35h-6v5h6v-5zM205 35h-5v5h5v-5zM210 35h-5v5h5v-5zM215 35h-5v5h5v-5z" fill="#fff" fill-opacity=".4"/><path d="M110 77h-5v5h5v-5zM115 72h-5v5h5v-5zM115 67h-5v5h5v-5zM121 67h-6v5h6v-5zM121 61h-6v6h6v-6zM126 61h-5v6h5v-6z" fill="#0ED1EF" fill-opacity=".1"/><path d="M110 72h-5v5h5v-5zM115 61h-5v6h5v-6zM121 56h-6v5h6v-5zM131 56h-5v5h5v-5zM131 61h-5v6h5v-6zM126 67h-5v5h5v-5zM126 72h-5v5h5v-5zM121 72h-6v5h6v-5zM121 77h-6v5h6v-5zM115 77h-5v5h5v-5zM115 82h-5v6h5v-6zM110 82h-5v6h5v-6zM136 56h-5v5h5v-5zM126 56h-5v5h5v-5z" fill="#0ED1EF" fill-opacity=".2"/></g></g><defs><clipPath id="clip0_4505_18513"><path fill="#fff" transform="translate(62.934 19.407)" d="M0 0h194.364v157.593H0z"/></clipPath></defs></svg>