<svg xmlns="http://www.w3.org/2000/svg" width="320" height="180" fill="none" shape-rendering="crispEdges" image-rendering="pixelated"><mask id="a" style="mask-type:alpha" maskUnits="userSpaceOnUse" x="0" y="0" width="320" height="180"><path fill="#D9D9D9" d="M0 0h320v180H0z"/></mask><g mask="url(#a)"><g style="mix-blend-mode:luminosity" clip-path="url(#clip0_4505_16475)"><path d="M256 30h5v5h-5v-5zM251 30h5v5h-5v-5zM246 30h5v5h-5v-5zM271 35h5v5h-5v-5zM266 35h5v5h-5v-5z" fill="#2E6DE4"/><path d="M261 35h5v5h-5v-5zM256 35h5v5h-5v-5z" fill="#1E3548"/><path d="M251 35h5v5h-5v-5zM241 35h5v5h-5v-5zM236 35h5v5h-5v-5zM231 35h5v5h-5v-5zM226 35h5v5h-5v-5zM221 35h5v5h-5v-5z" fill="#2E6DE4"/><path d="M276 40h5v5h-5v-5zM271 40h5v5h-5v-5zM266 40h5v5h-5v-5zM261 40h5v5h-5v-5z" fill="#1E3548"/><path d="M256 40h5v5h-5v-5z" fill="#223F6A"/><path d="M251 40h5v5h-5v-5z" fill="#2E6DE4"/><path d="M246 40h5v5h-5v-5zM241 40h5v5h-5v-5zM236 40h5v5h-5v-5zM231 40h5v5h-5v-5zM226 40h5v5h-5v-5zM221 40h5v5h-5v-5zM216 40h5v5h-5v-5zM211 40h5v5h-5v-5z" fill="#141412"/><path d="M206 40h5v5h-5v-5z" fill="#151512"/><path d="M276 45h5v5h-5v-5z" fill="#1E3548"/><path d="M271 45h5v5h-5v-5zM266 45h5v5h-5v-5z" fill="#252F32"/><path d="M261 45h5v5h-5v-5zM256 45h5v5h-5v-5z" fill="#1E3548"/><path d="M251 45h5v5h-5v-5z" fill="#2E6DE4"/><path d="M241 45h5v5h-5v-5zM236 45h5v5h-5v-5zM231 45h5v5h-5v-5zM226 45h5v5h-5v-5zM221 45h5v5h-5v-5zM216 45h5v5h-5v-5zM211 45h5v5h-5v-5z" fill="#0ED1EF"/><path d="M206 45h5v5h-5v-5z" fill="#141412"/><path d="M276 50h5v5h-5v-5z" fill="#0E1615"/><path d="M271 50h5v5h-5v-5zM266 50h5v5h-5v-5z" fill="#131A19"/><path d="M261 50h5v5h-5v-5zM256 50h5v5h-5v-5z" fill="#1E3548"/><path d="M251 50h5v5h-5v-5z" fill="#2E6DE4"/><path d="M241 50h5v5h-5v-5zM236 50h5v5h-5v-5zM231 50h5v5h-5v-5zM226 50h5v5h-5v-5zM221 50h5v5h-5v-5zM216 50h5v5h-5v-5zM211 50h5v5h-5v-5z" fill="#0ED1EF"/><path d="M206 50h5v5h-5v-5z" fill="#141412"/><path d="M276 55h5v5h-5v-5z" fill="#1E3548"/><path d="M271 55h5v5h-5v-5z" fill="#131A19"/><path d="M266 55h5v5h-5v-5z" fill="#252F32"/><path d="M261 55h5v5h-5v-5zM256 55h5v5h-5v-5z" fill="#1E3548"/><path d="M251 55h5v5h-5v-5z" fill="#2E6DE4"/><path d="M206 55h5v5h-5v-5z" fill="#141412"/><path d="M276 60h5v5h-5v-5z" fill="#1E3548"/><path d="M271 60h5v5h-5v-5zM266 60h5v5h-5v-5z" fill="#252F32"/><path d="M261 60h5v5h-5v-5zM256 60h5v5h-5v-5z" fill="#1E3548"/><path d="M251 60h5v5h-5v-5z" fill="#2E6DE4"/><path d="M246 60h5v5h-5v-5zM241 60h5v5h-5v-5zM236 60h5v5h-5v-5zM231 60h5v5h-5v-5zM226 60h5v5h-5v-5zM221 60h5v5h-5v-5z" fill="#141412"/><path d="M216 60h5v5h-5v-5zM211 60h5v5h-5v-5z" fill="#151512"/><path d="M206 60h5v5h-5v-5z" fill="#141412"/><path d="M301 65h5v5h-5v-5z" fill="#1E3548"/><path d="M296 65h5v5h-5v-5z" fill="#252F32"/><path d="M276 65h5v5h-5v-5z" fill="#1E3548"/><path d="M271 65h5v5h-5v-5z" fill="#252F32"/><path d="M266 65h5v5h-5v-5z" fill="#131A19"/><path d="M261 65h5v5h-5v-5zM256 65h5v5h-5v-5z" fill="#1E3548"/><path d="M251 65h5v5h-5v-5z" fill="#2E5FAD"/><path d="M196 65h5v5h-5v-5z" fill="#2E6DE4"/><path d="M306 70h5v5h-5v-5z" fill="#1E3548"/><path d="M301 70h5v5h-5v-5z" fill="#223F6A"/><path d="M296 70h5v5h-5v-5z" fill="#2E5FAD"/><path d="M291 70h5v5h-5v-5zM286 70h5v5h-5v-5z" fill="#2E6DE4"/><path d="M276 70h5v5h-5v-5z" fill="#1B2221"/><path d="M271 70h5v5h-5v-5z" fill="#252F32"/><path d="M266 70h5v5h-5v-5zM261 70h5v5h-5v-5z" fill="#1B2221"/><path d="M256 70h5v5h-5v-5z" fill="#131A19"/><path d="M251 70h5v5h-5v-5z" fill="#1E3548"/><path d="M246 70h5v5h-5v-5zM241 70h5v5h-5v-5zM236 70h5v5h-5v-5zM231 70h5v5h-5v-5zM226 70h5v5h-5v-5zM221 70h5v5h-5v-5zM216 70h5v5h-5v-5zM211 70h5v5h-5v-5zM206 70h5v5h-5v-5z" fill="#223F6A"/><path d="M201 70h5v5h-5v-5z" fill="#1B2221"/><path d="M196 70h5v5h-5v-5zM191 70h5v5h-5v-5z" fill="#2E6DE4"/><path d="M306 75h5v5h-5v-5z" fill="#1E3548"/><path d="M301 75h5v5h-5v-5z" fill="#223F6A"/><path d="M296 75h5v5h-5v-5z" fill="#2E5FAD"/><path d="M291 75h5v5h-5v-5zM286 75h5v5h-5v-5z" fill="#2E6DE4"/><path d="M276 75h5v5h-5v-5zM271 75h5v5h-5v-5z" fill="#1B2221"/><path d="M266 75h5v5h-5v-5z" fill="#1E3548"/><path d="M261 75h5v5h-5v-5zM256 75h5v5h-5v-5z" fill="#0E1615"/><path d="M251 75h5v5h-5v-5zM246 75h5v5h-5v-5zM241 75h5v5h-5v-5zM236 75h5v5h-5v-5zM231 75h5v5h-5v-5zM226 75h5v5h-5v-5zM221 75h5v5h-5v-5zM216 75h5v5h-5v-5zM211 75h5v5h-5v-5z" fill="#131A19"/><path d="M206 75h5v5h-5v-5z" fill="#1B2221"/><path d="M201 75h5v5h-5v-5z" fill="#252F32"/><path d="M196 75h5v5h-5v-5z" fill="#2E6DE4"/><path d="M191 75h5v5h-5v-5z" fill="#131A19"/><path d="M186 75h5v5h-5v-5z" fill="#434946"/><path d="M311 80h5v5h-5v-5z" fill="#1B2221"/><path d="M306 80h5v5h-5v-5z" fill="#1E3548"/><path d="M301 80h5v5h-5v-5z" fill="#223F6A"/><path d="M296 80h5v5h-5v-5z" fill="#2E5FAD"/><path d="M291 80h5v5h-5v-5zM286 80h5v5h-5v-5zM281 80h5v5h-5v-5z" fill="#2E6DE4"/><path d="M276 80h5v5h-5v-5zM271 80h5v5h-5v-5z" fill="#252F32"/><path d="M266 80h5v5h-5v-5zM261 80h5v5h-5v-5z" fill="#1E3548"/><path d="M256 80h5v5h-5v-5z" fill="#223F6A"/><path d="M251 80h5v5h-5v-5z" fill="#1E3548"/><path d="M246 80h5v5h-5v-5zM241 80h5v5h-5v-5z" fill="#131A19"/><path d="M236 80h5v5h-5v-5zM231 80h5v5h-5v-5z" fill="#1B2221"/><path d="M226 80h5v5h-5v-5zM221 80h5v5h-5v-5z" fill="#131A19"/><path d="M216 80h5v5h-5v-5z" fill="#223F6A"/><path d="M211 80h5v5h-5v-5z" fill="#2E5FAD"/><path d="M206 80h5v5h-5v-5zM201 80h5v5h-5v-5z" fill="#252F32"/><path d="M196 80h5v5h-5v-5z" fill="#2E6DE4"/><path d="M191 80h5v5h-5v-5z" fill="#131A19"/><path d="M186 80h5v5h-5v-5z" fill="#252F32"/><path d="M311 85h5v5h-5v-5z" fill="#1B2221"/><path d="M306 85h5v5h-5v-5z" fill="#1E3548"/><path d="M301 85h5v5h-5v-5z" fill="#2E5FAD"/><path d="M296 85h5v5h-5v-5zM291 85h5v5h-5v-5zM286 85h5v5h-5v-5zM281 85h5v5h-5v-5z" fill="#2E6DE4"/><path d="M276 85h5v5h-5v-5z" fill="#131A19"/><path d="M271 85h5v5h-5v-5z" fill="#252F32"/><path d="M266 85h5v5h-5v-5z" fill="#1E3548"/><path d="M261 85h5v5h-5v-5z" fill="#2E5FAD"/><path d="M256 85h5v5h-5v-5zM251 85h5v5h-5v-5z" fill="#2E6DE4"/><path d="M246 85h5v5h-5v-5zM241 85h5v5h-5v-5zM211 85h5v5h-5v-5z" fill="#2E5FAD"/><path d="M206 85h5v5h-5v-5z" fill="#1B2221"/><path d="M201 85h5v5h-5v-5z" fill="#252F32"/><path d="M196 85h5v5h-5v-5z" fill="#223F6A"/><path d="M191 85h5v5h-5v-5zM186 85h5v5h-5v-5z" fill="#0E1615"/><path d="M306 90h5v5h-5v-5z" fill="#131A19"/><path d="M301 90h5v5h-5v-5z" fill="#1E3548"/><path d="M296 90h5v5h-5v-5zM291 90h5v5h-5v-5zM286 90h5v5h-5v-5z" fill="#2E6DE4"/><path d="M281 90h5v5h-5v-5z" fill="#223F6A"/><path d="M276 90h5v5h-5v-5z" fill="#131A19"/><path d="M271 90h5v5h-5v-5z" fill="#0E1615"/><path d="M266 90h5v5h-5v-5z" fill="#1E3548"/><path d="M261 90h5v5h-5v-5zM256 90h5v5h-5v-5z" fill="#2E5FAD"/><path d="M251 90h5v5h-5v-5zM241 90h5v5h-5v-5zM236 90h5v5h-5v-5zM231 90h5v5h-5v-5zM226 90h5v5h-5v-5zM221 90h5v5h-5v-5z" fill="#2E6DE4"/><path d="M211 90h5v5h-5v-5z" fill="#223F6A"/><path d="M206 90h5v5h-5v-5z" fill="#131A19"/><path d="M201 90h5v5h-5v-5zM196 90h5v5h-5v-5z" fill="#252F32"/><path d="M191 90h5v5h-5v-5zM186 90h5v5h-5v-5z" fill="#2E6DE4"/><path d="M181 90h5v5h-5v-5z" fill="#2E5FAD"/><path d="M301 95h5v5h-5v-5zM296 95h5v5h-5v-5zM291 95h5v5h-5v-5z" fill="#1B2221"/><path d="M286 95h5v5h-5v-5z" fill="#131A19"/><path d="M276 95h5v5h-5v-5zM271 95h5v5h-5v-5z" fill="#252F32"/><path d="M266 95h5v5h-5v-5z" fill="#1E3548"/><path d="M261 95h5v5h-5v-5zM256 95h5v5h-5v-5zM251 95h5v5h-5v-5z" fill="#2E5FAD"/><path d="M236 95h5v5h-5v-5zM231 95h5v5h-5v-5z" fill="#2E6DE4"/><path d="M226 95h5v5h-5v-5z" fill="#1E3548"/><path d="M221 95h5v5h-5v-5z" fill="#2E6DE4"/><path d="M211 95h5v5h-5v-5z" fill="#223F6A"/><path d="M206 95h5v5h-5v-5zM201 95h5v5h-5v-5z" fill="#252F32"/><path d="M196 95h5v5h-5v-5zM191 95h5v5h-5v-5zM186 95h5v5h-5v-5z" fill="#1B2221"/><path d="M301 100h5v5h-5v-5zM296 100h5v5h-5v-5z" fill="#0E1615"/><path d="M291 100h5v5h-5v-5z" fill="#434946"/><path d="M276 100h5v5h-5v-5z" fill="#1B2221"/><path d="M271 100h5v5h-5v-5z" fill="#252F32"/><path d="M266 100h5v5h-5v-5z" fill="#1E3548"/><path d="M261 100h5v5h-5v-5zM251 100h5v5h-5v-5zM241 100h5v5h-5v-5z" fill="#2E5FAD"/><path d="M216 100h5v5h-5v-5z" fill="#131A19"/><path d="M211 100h5v5h-5v-5z" fill="#2E5FAD"/><path d="M201 100h5v5h-5v-5z" fill="#0E1615"/><path d="M196 100h5v5h-5v-5z" fill="#131A19"/><path d="M191 100h5v5h-5v-5z" fill="#434946"/><path d="M186 100h5v5h-5v-5z" fill="#252F32"/><path d="M301 105h5v5h-5v-5zM296 105h5v5h-5v-5z" fill="#131A19"/><path d="M291 105h5v5h-5v-5z" fill="#0E1615"/><path d="M276 105h5v5h-5v-5z" fill="#1E3548"/><path d="M271 105h5v5h-5v-5zM266 105h5v5h-5v-5zM261 105h5v5h-5v-5z" fill="#252F32"/><path d="M256 105h5v5h-5v-5z" fill="#1B2221"/><path d="M251 105h5v5h-5v-5z" fill="#1E3548"/><path d="M246 105h5v5h-5v-5zM216 105h5v5h-5v-5zM211 105h5v5h-5v-5z" fill="#223F6A"/><path d="M196 105h5v5h-5v-5z" fill="#0E1615"/><path d="M191 105h5v5h-5v-5z" fill="#131A19"/><path d="M186 105h5v5h-5v-5z" fill="#1B2221"/><path d="M311 110h5v5h-5v-5z" fill="#1E3548"/><path d="M306 110h5v5h-5v-5z" fill="#2E5FAD"/><path d="M301 110h5v5h-5v-5z" fill="#2E6DE4"/><path d="M271 110h5v5h-5v-5zM266 110h5v5h-5v-5z" fill="#0E1615"/><path d="M261 110h5v5h-5v-5zM256 110h5v5h-5v-5z" fill="#131A19"/><path d="M251 110h5v5h-5v-5z" fill="#0E1615"/><path d="M246 110h5v5h-5v-5zM241 110h5v5h-5v-5z" fill="#131A19"/><path d="M236 110h5v5h-5v-5zM231 110h5v5h-5v-5z" fill="#252F32"/><path d="M226 110h5v5h-5v-5z" fill="#434946"/><path d="M221 110h5v5h-5v-5z" fill="#0E1615"/><path d="M216 110h5v5h-5v-5z" fill="#1B2221"/><path d="M196 110h5v5h-5v-5zM191 110h5v5h-5v-5z" fill="#223F6A"/><path d="M186 110h5v5h-5v-5z" fill="#2E6DE4"/><path d="M311 115h5v5h-5v-5z" fill="#1E3548"/><path d="M306 115h5v5h-5v-5z" fill="#2E5FAD"/><path d="M261 115h5v5h-5v-5z" fill="#131A19"/><path d="M256 115h5v5h-5v-5z" fill="#0E1615"/><path d="M251 115h5v5h-5v-5z" fill="#131A19"/><path d="M246 115h5v5h-5v-5z" fill="#1B2221"/><path d="M241 115h5v5h-5v-5z" fill="#131A19"/><path d="M236 115h5v5h-5v-5zM231 115h5v5h-5v-5zM226 115h5v5h-5v-5z" fill="#252F32"/><path d="M221 115h5v5h-5v-5z" fill="#1B2221"/><path d="M216 115h5v5h-5v-5z" fill="#0E1615"/><path d="M196 115h5v5h-5v-5z" fill="#223F6A"/><path d="M191 115h5v5h-5v-5z" fill="#2E5FAD"/><path d="M186 115h5v5h-5v-5z" fill="#1B2221"/><path d="M181 115h5v5h-5v-5z" fill="#2E6DE4"/><path d="M171 115h5v5h-5v-5z" fill="#1E3548"/><path d="M311 120h5v5h-5v-5z" fill="#223F6A"/><path d="M306 120h5v5h-5v-5z" fill="#1E3548"/><path d="M301 120h5v5h-5v-5z" fill="#223F6A"/><path d="M296 120h5v5h-5v-5z" fill="#1E3548"/><path d="M291 120h5v5h-5v-5zM286 120h5v5h-5v-5z" fill="#2E6DE4"/><path d="M261 120h5v5h-5v-5z" fill="#131A19"/><path d="M256 120h5v5h-5v-5z" fill="#1B2221"/><path d="M251 120h5v5h-5v-5z" fill="#0E1615"/><path d="M246 120h5v5h-5v-5zM241 120h5v5h-5v-5z" fill="#1B2221"/><path d="M236 120h5v5h-5v-5zM231 120h5v5h-5v-5zM226 120h5v5h-5v-5z" fill="#252F32"/><path d="M221 120h5v5h-5v-5zM216 120h5v5h-5v-5zM211 120h5v5h-5v-5z" fill="#1B2221"/><path d="M196 120h5v5h-5v-5z" fill="#1E3548"/><path d="M191 120h5v5h-5v-5z" fill="#223F6A"/><path d="M186 120h5v5h-5v-5z" fill="#1B2221"/><path d="M181 120h5v5h-5v-5z" fill="#2E6DE4"/><path d="M311 125h5v5h-5v-5z" fill="#223F6A"/><path d="M306 125h5v5h-5v-5z" fill="#252F32"/><path d="M301 125h5v5h-5v-5z" fill="#1B2221"/><path d="M296 125h5v5h-5v-5z" fill="#252F32"/><path d="M291 125h5v5h-5v-5z" fill="#0E1615"/><path d="M286 125h5v5h-5v-5z" fill="#1E3548"/><path d="M266 125h5v5h-5v-5z" fill="#0E1615"/><path d="M261 125h5v5h-5v-5zM256 125h5v5h-5v-5z" fill="#252F32"/><path d="M251 125h5v5h-5v-5z" fill="#1B2221"/><path d="M246 125h5v5h-5v-5z" fill="#131A19"/><path d="M241 125h5v5h-5v-5zM236 125h5v5h-5v-5z" fill="#1B2221"/><path d="M231 125h5v5h-5v-5z" fill="#131A19"/><path d="M226 125h5v5h-5v-5z" fill="#0E1615"/><path d="M221 125h5v5h-5v-5z" fill="#131A19"/><path d="M216 125h5v5h-5v-5zM211 125h5v5h-5v-5zM191 125h5v5h-5v-5zM186 125h5v5h-5v-5zM181 125h5v5h-5v-5z" fill="#252F32"/><path d="M176 125h5v5h-5v-5z" fill="#1B2221"/><path d="M171 125h5v5h-5v-5zM311 130h5v5h-5v-5z" fill="#252F32"/><path d="M306 130h5v5h-5v-5z" fill="#1B2221"/><path d="M301 130h5v5h-5v-5z" fill="#131A19"/><path d="M296 130h5v5h-5v-5z" fill="#434946"/><path d="M291 130h5v5h-5v-5z" fill="#131A19"/><path d="M286 130h5v5h-5v-5z" fill="#252F32"/><path d="M271 130h5v5h-5v-5z" fill="#000"/><path d="M266 130h5v5h-5v-5z" fill="#131A19"/><path d="M261 130h5v5h-5v-5zM256 130h5v5h-5v-5zM251 130h5v5h-5v-5zM221 130h5v5h-5v-5zM216 130h5v5h-5v-5z" fill="#1B2221"/><path d="M211 130h5v5h-5v-5z" fill="#131A19"/><path d="M186 130h5v5h-5v-5z" fill="#1B2221"/><path d="M181 130h5v5h-5v-5z" fill="#131A19"/><path d="M176 130h5v5h-5v-5z" fill="#1B2221"/><path d="M306 135h5v5h-5v-5z" fill="#0E1615"/><path d="M301 135h5v5h-5v-5z" fill="#131A19"/><path d="M296 135h5v5h-5v-5z" fill="#434946"/><path d="M291 135h5v5h-5v-5z" fill="#000"/><path d="M286 135h5v5h-5v-5zM271 135h5v5h-5v-5z" fill="#131A19"/><path d="M266 135h5v5h-5v-5z" fill="#434946"/><path d="M261 135h5v5h-5v-5z" fill="#252F32"/><path d="M256 135h5v5h-5v-5zM251 135h5v5h-5v-5z" fill="#434946"/><path d="M221 135h5v5h-5v-5z" fill="#0E1615"/><path d="M216 135h5v5h-5v-5z" fill="#434946"/><path d="M211 135h5v5h-5v-5z" fill="#252F32"/><path d="M206 135h5v5h-5v-5z" fill="#434946"/><path d="M186 135h5v5h-5v-5zM181 135h5v5h-5v-5z" fill="#131A19"/><path d="M176 135h5v5h-5v-5z" fill="#1B2221"/><path d="M306 140h5v5h-5v-5z" fill="#131A19"/><path d="M301 140h5v5h-5v-5z" fill="#1B2221"/><path d="M296 140h5v5h-5v-5z" fill="#131A19"/><path d="M266 140h5v5h-5v-5z" fill="#1B2221"/><path d="M251 140h5v5h-5v-5z" fill="#434946"/><path d="M221 140h5v5h-5v-5z" fill="#131A19"/><path d="M216 140h5v5h-5v-5z" fill="#434946"/><path d="M211 140h5v5h-5v-5z" fill="#131A19"/><path d="M206 140h5v5h-5v-5z" fill="#252F32"/><path d="M186 140h5v5h-5v-5zM181 140h5v5h-5v-5zM301 145h5v5h-5v-5zM296 145h5v5h-5v-5z" fill="#131A19"/><path d="M276 145h5v5h-5v-5zM271 145h5v5h-5v-5z" fill="#1E3548"/><path d="M266 145h5v5h-5v-5z" fill="#223F6A"/><path d="M221 145h5v5h-5v-5z" fill="#000"/><path d="M216 145h5v5h-5v-5zM211 145h5v5h-5v-5z" fill="#131A19"/><path d="M206 145h5v5h-5v-5z" fill="#223F6A"/><path d="M276 150h5v5h-5v-5zM271 150h5v5h-5v-5z" fill="#1E3548"/><path d="M266 150h5v5h-5v-5z" fill="#2E5FAD"/><path d="M261 150h5v5h-5v-5z" fill="#434946"/><path d="M221 150h5v5h-5v-5z" fill="#1E3548"/><path d="M216 150h5v5h-5v-5z" fill="#252F32"/><path d="M211 150h5v5h-5v-5zM276 155h5v5h-5v-5zM271 155h5v5h-5v-5z" fill="#1E3548"/><path d="M266 155h5v5h-5v-5z" fill="#2E5FAD"/><path d="M261 155h5v5h-5v-5z" fill="#1B2221"/><path d="M256 155h5v5h-5v-5z" fill="#252F32"/><path d="M251 155h5v5h-5v-5z" fill="#131A19"/><path d="M221 155h5v5h-5v-5zM216 155h5v5h-5v-5zM211 155h5v5h-5v-5z" fill="#1E3548"/><path d="M206 155h5v5h-5v-5zM196 155h5v5h-5v-5z" fill="#2E5FAD"/><path d="M281 160h5v5h-5v-5zM276 160h5v5h-5v-5zM271 160h5v5h-5v-5z" fill="#1E3548"/><path d="M266 160h5v5h-5v-5z" fill="#2E5FAD"/><path d="M261 160h5v5h-5v-5zM256 160h5v5h-5v-5z" fill="#223F6A"/><path d="M216 160h5v5h-5v-5z" fill="#1E3548"/><path d="M211 160h5v5h-5v-5z" fill="#223F6A"/><path d="M206 160h5v5h-5v-5z" fill="#1E3548"/><path d="M201 160h5v5h-5v-5zM196 160h5v5h-5v-5z" fill="#2E5FAD"/><path d="M246 45h5v5h-5v-5zM246 50h5v5h-5v-5zM246 55h5v5h-5v-5zM211 55h5v5h-5v-5zM216 55h5v5h-5v-5zM221 55h5v5h-5v-5zM226 55h5v5h-5v-5zM231 55h5v5h-5v-5zM236 55h5v5h-5v-5zM241 55h5v5h-5v-5z" fill="#141412"/><path d="M246 35h5v5h-5v-5z" fill="#2E6DE4"/><path d="M291 115h5v5h-5v-5z" fill="#407EF2"/><path d="M216 30h5v5h-5v-5zM221 30h5v5h-5v-5zM226 30h5v5h-5v-5zM231 30h5v5h-5v-5zM236 30h5v5h-5v-5zM241 30h5v5h-5v-5zM201 35h5v5h-5v-5zM206 35h5v5h-5v-5zM211 35h5v5h-5v-5zM216 35h5v5h-5v-5zM201 60h5v5h-5v-5zM201 55h5v5h-5v-5zM201 50h5v5h-5v-5zM201 45h5v5h-5v-5zM201 40h5v5h-5v-5zM181 85h5v5h-5v-5zM181 80h5v5h-5v-5zM181 75h5v5h-5v-5zM181 70h5v5h-5v-5zM186 70h5v5h-5v-5zM186 65h5v5h-5v-5zM191 65h5v5h-5v-5zM176 120h5v5h-5v-5zM176 115h5v5h-5v-5zM176 110h5v5h-5v-5zM181 110h5v5h-5v-5zM171 120h5v5h-5v-5zM206 150h5v5h-5v-5zM201 150h5v5h-5v-5zM201 145h5v5h-5v-5zM201 140h5v5h-5v-5zM256 150h5v5h-5v-5zM261 145h5v5h-5v-5zM281 75h5v5h-5v-5zM281 70h5v5h-5v-5zM281 65h5v5h-5v-5zM286 65h5v5h-5v-5zM291 65h5v5h-5v-5zM296 115h5v5h-5v-5zM296 110h5v5h-5v-5zM291 110h5v5h-5v-5zM286 110h5v5h-5v-5zM301 115h5v5h-5v-5z" fill="#689AF8"/><path d="M226 65h5v5h-5v-5zM231 65h5v5h-5v-5zM236 65h5v5h-5v-5zM241 65h5v5h-5v-5zM246 65h5v5h-5v-5z" fill="#2E6DE4"/><path d="M201 65h5v5h-5v-5zM221 65h5v5h-5v-5zM216 65h5v5h-5v-5zM211 65h5v5h-5v-5zM206 65h5v5h-5v-5z" fill="#689AF8"/><path d="M241 105h5v5h-5v-5zM236 105h5v5h-5v-5zM236 100h5v5h-5v-5zM231 100h5v5h-5v-5zM226 100h5v5h-5v-5zM221 100h5v5h-5v-5zM221 105h5v5h-5v-5zM226 105h5v5h-5v-5zM231 105h5v5h-5v-5z" fill="#151512"/><path d="M286 170h5v5h-5v-5zM291 170h5v5h-5v-5zM296 170h5v5h-5v-5zM301 170h5v5h-5v-5zM306 170h5v5h-5v-5zM311 170h5v5h-5v-5zM306 175h5v5h-5v-5zM301 175h5v5h-5v-5zM291 175h5v5h-5v-5zM296 175h5v5h-5v-5zM171 175h5v5h-5v-5zM176 175h5v5h-5v-5zM221 175h5v5h-5v-5zM226 175h5v5h-5v-5zM231 175h5v5h-5v-5zM236 175h5v5h-5v-5zM241 175h5v5h-5v-5zM246 175h5v5h-5v-5zM226 170h5v5h-5v-5zM231 170h5v5h-5v-5zM236 170h5v5h-5v-5zM241 170h5v5h-5v-5zM186 170h5v5h-5v-5zM181 170h5v5h-5v-5zM181 175h5v5h-5v-5z" fill="#1C2330"/><path d="M221 160h5v5h-5v-5zM251 160h5v5h-5v-5zM271 170h5v5h-5v-5zM276 170h5v5h-5v-5zM281 170h5v5h-5v-5zM266 165h5v5h-5v-5zM201 170h5v5h-5v-5zM196 170h5v5h-5v-5zM191 170h5v5h-5v-5zM206 165h5v5h-5v-5z" fill="#0E1615"/><path d="M271 165h5v5h-5v-5zM276 165h5v5h-5v-5zM281 165h5v5h-5v-5zM251 165h5v5h-5v-5zM256 165h5v5h-5v-5zM261 165h5v5h-5v-5zM261 170h5v5h-5v-5zM266 170h5v5h-5v-5zM206 170h5v5h-5v-5zM211 170h5v5h-5v-5zM211 165h5v5h-5v-5zM216 165h5v5h-5v-5zM191 165h5v5h-5v-5zM196 165h5v5h-5v-5zM201 165h5v5h-5v-5z" fill="#21282C"/><path d="M256 170h5v5h-5v-5zM251 170h5v5h-5v-5zM246 170h5v5h-5v-5zM286 175h5v5h-5v-5zM281 175h5v5h-5v-5zM276 175h5v5h-5v-5zM271 175h5v5h-5v-5zM266 175h5v5h-5v-5zM261 175h5v5h-5v-5zM256 175h5v5h-5v-5zM251 175h5v5h-5v-5zM221 170h5v5h-5v-5zM216 170h5v5h-5v-5zM186 175h5v5h-5v-5zM191 175h5v5h-5v-5zM196 175h5v5h-5v-5zM201 175h5v5h-5v-5zM206 175h5v5h-5v-5zM211 175h5v5h-5v-5zM216 175h5v5h-5v-5z" fill="#161C27"/><path d="M216 95h5v5h-5v-5zM216 90h5v5h-5v-5zM216 85h5v5h-5v-5zM221 85h5v5h-5v-5zM226 85h5v5h-5v-5zM231 85h5v5h-5v-5zM236 85h5v5h-5v-5zM261 140h5v5h-5v-5z" fill="#689AF8"/><path d="M246 90h5v5h-5v-5zM246 100h5v5h-5v-5zM246 95h5v5h-5v-5zM241 95h5v5h-5v-5zM286 115h5v5h-5v-5z" fill="#2E6DE4"/><path d="M201 155h5v5h-5v-5zM251 150h5v5h-5v-5zM256 140h5v5h-5v-5zM256 145h5v5h-5v-5zM256 100h5v5h-5v-5z" fill="#2E5FAD"/><path d="M241 50h5v5h-5v-5zM241 45h5v5h-5v-5zM236 45h5v5h-5v-5zM231 45h5v5h-5v-5zM226 45h5v5h-5v-5zM221 45h5v5h-5v-5zM216 45h5v5h-5v-5zM211 45h5v5h-5v-5z" fill="#fff" fill-opacity=".4"/><path d="M311 85h5v5h-5v-5zM306 80h5v5h-5v-5zM306 75h5v5h-5v-5zM301 75h5v5h-5v-5zM301 70h5v5h-5v-5zM296 70h5v5h-5v-5z" fill="#0ED1EF" fill-opacity=".1"/><path d="M311 80h5v5h-5v-5zM306 70h5v5h-5v-5zM301 65h5v5h-5v-5zM291 65h5v5h-5v-5zM291 70h5v5h-5v-5zM296 75h5v5h-5v-5zM296 80h5v5h-5v-5zM301 80h5v5h-5v-5zM301 85h5v5h-5v-5zM306 85h5v5h-5v-5zM306 90h5v5h-5v-5zM311 90h5v5h-5v-5zM286 65h5v5h-5v-5zM296 65h5v5h-5v-5z" fill="#0ED1EF" fill-opacity=".2"/></g><g clip-path="url(#clip1_4505_16475)"><path d="M61 27h-5v4h5v-4z" fill="#2F3638"/><path d="M65 27h-4v4h4v-4zM74 27h-5v4h5v-4z" fill="#2454C7"/><path d="M78 27h-4v4h4v-4zM56 31h-4v5h4v-5zM61 31h-5v5h5v-5z" fill="#1F53A0"/><path d="M65 31h-4v5h4v-5z" fill="#1E2729"/><path d="M69 31h-4v5h4v-5z" fill="#2454C7"/><path d="M52 36h-4v4h4v-4zM56 36h-4v4h4v-4z" fill="#1C394D"/><path d="M61 36h-5v4h5v-4z" fill="#1C323D"/><path d="M65 36h-4v4h4v-4zM69 36h-4v4h4v-4z" fill="#1C394D"/><path d="M52 40h-4v4h4v-4z" fill="#272C2B"/><path d="M56 40h-4v4h4v-4zM61 40h-5v4h5v-4z" fill="#2F3638"/><path d="M65 40h-4v4h4v-4zM69 40h-4v4h4v-4z" fill="#1C394D"/><path d="M87 40h-5v4h5v-4zM91 40h-4v4h4v-4zM96 40h-5v4h5v-4zM100 40h-4v4h4v-4zM104 40h-4v4h4v-4z" fill="#10D4F0"/><path d="M48 44h-5v5h5v-5z" fill="#171A13"/><path d="M52 44h-4v5h4v-5z" fill="#111815"/><path d="M56 44h-4v5h4v-5z" fill="#151B18"/><path d="M61 44h-5v5h5v-5z" fill="#3D4247"/><path d="M65 44h-4v5h4v-5z" fill="#1D2423"/><path d="M69 44h-4v5h4v-5z" fill="#1C394D"/><path d="M87 44h-5v5h5v-5zM91 44h-4v5h4v-5zM96 44h-5v5h5v-5zM100 44h-4v5h4v-5zM104 44h-4v5h4v-5zM109 44h-5v5h5v-5z" fill="#10D4F0"/><path d="M48 49h-5v4h5v-4z" fill="#181E1C"/><path d="M52 49h-4v4h4v-4z" fill="#2F3638"/><path d="M56 49h-4v4h4v-4z" fill="#1D2423"/><path d="M61 49h-5v4h5v-4z" fill="#181E1C"/><path d="M65 49h-4v4h4v-4z" fill="#1B211F"/><path d="M69 49h-4v4h4v-4z" fill="#1C394D"/><path d="M109 49h-5v4h5v-4z" fill="#10D4F0"/><path d="M48 53h-5v5h5v-5z" fill="#181E1C"/><path d="M52 53h-4v5h4v-5z" fill="#151B18"/><path d="M56 53h-4v5h4v-5z" fill="#181E1C"/><path d="M61 53h-5v5h5v-5z" fill="#3D4247"/><path d="M65 53h-4v5h4v-5z" fill="#1D2423"/><path d="M69 53h-4v5h4v-5z" fill="#1C394D"/><path d="M52 58h-4v4h4v-4z" fill="#1D2423"/><path d="M56 58h-4v4h4v-4zM61 58h-5v4h5v-4z" fill="#1B211F"/><path d="M65 58h-4v4h4v-4z" fill="#181E1C"/><path d="M69 58h-4v4h4v-4zM52 62h-4v4h4v-4zM56 62h-4v4h4v-4zM61 62h-5v4h5v-4zM65 62h-4v4h4v-4zM69 62h-4v4h4v-4z" fill="#1C394D"/><path d="M74 62h-5v4h5v-4z" fill="#1E4A81"/><path d="M21 66h-4v5h4v-5zM61 66h-5v5h5v-5zM65 66h-4v5h4v-5z" fill="#1E2729"/><path d="M69 66h-4v5h4v-5zM74 66h-5v5h5v-5zM78 66h-4v5h4v-5zM82 66h-4v5h4v-5zM87 66h-5v5h5v-5zM91 66h-4v5h4v-5zM96 66h-5v5h5v-5zM100 66h-4v5h4v-5zM104 66h-4v5h4v-5zM109 66h-5v5h5v-5z" fill="#1C323D"/><path d="M8 71H4v4h4v-4z" fill="#1C1F1A"/><path d="M13 71H8v4h5v-4z" fill="#272C2B"/><path d="M21 71h-4v4h4v-4z" fill="#1B211F"/><path d="M65 71h-4v4h4v-4zM69 71h-4v4h4v-4zM74 71h-5v4h5v-4zM78 71h-4v4h4v-4zM82 71h-4v4h4v-4z" fill="#151B18"/><path d="M87 71h-5v4h5v-4zM91 71h-4v4h4v-4z" fill="#1C1F1A"/><path d="M96 71h-5v4h5v-4z" fill="#171A13"/><path d="M100 71h-4v4h4v-4z" fill="#1C1F1A"/><path d="M113 71h-4v4h4v-4z" fill="#1C323D"/><path d="M8 75H4v4h4v-4z" fill="#162225"/><path d="M13 75H8v4h5v-4z" fill="#1E2729"/><path d="M21 75h-4v4h4v-4z" fill="#181E1C"/><path d="M26 75h-5v4h5v-4zM30 75h-4v4h4v-4z" fill="#1D2423"/><path d="M56 75h-4v4h4v-4zM61 75h-5v4h5v-4zM65 75h-4v4h4v-4z" fill="#1C394D"/><path d="M109 75h-5v4h5v-4z" fill="#1F53A0"/><path d="M113 75h-4v4h4v-4zM117 75h-4v4h4v-4zM126 75h-4v4h4v-4z" fill="#2454C7"/><path d="M13 79H8v5h5v-5z" fill="#272C2B"/><path d="M17 79h-4v5h4v-5z" fill="#2F3638"/><path d="M21 79h-4v5h4v-5z" fill="#272C2B"/><path d="M26 79h-5v5h5v-5z" fill="#1B211F"/><path d="M61 79h-5v5h5v-5zM65 79h-4v5h4v-5z" fill="#1C394D"/><path d="M113 79h-4v5h4v-5z" fill="#2454C7"/><path d="M126 79h-4v5h4v-5z" fill="#1E4A81"/><path d="M135 79h-5v5h5v-5z" fill="#1F53A0"/><path d="M13 84H8v4h5v-4zM17 84h-4v4h4v-4z" fill="#151B18"/><path d="M21 84h-4v4h4v-4z" fill="#2F3638"/><path d="M26 84h-5v4h5v-4z" fill="#3D4247"/><path d="M30 84h-4v4h4v-4z" fill="#181E1C"/><path d="M39 84h-4v4h4v-4z" fill="#1C323D"/><path d="M43 84h-4v4h4v-4zM65 84h-4v4h4v-4z" fill="#1C394D"/><path d="M113 84h-4v4h4v-4z" fill="#1F53A0"/><path d="M122 84h-5v4h5v-4zM126 84h-4v4h4v-4z" fill="#1E4A81"/><path d="M13 88H8v4h5v-4zM17 88h-4v4h4v-4z" fill="#1B211F"/><path d="M21 88h-4v4h4v-4z" fill="#181E1C"/><path d="M26 88h-5v4h5v-4z" fill="#2F3638"/><path d="M43 88h-4v4h4v-4z" fill="#111815"/><path d="M48 88h-5v4h5v-4z" fill="#151B18"/><path d="M52 88h-4v4h4v-4zM65 88h-4v4h4v-4z" fill="#1C394D"/><path d="M122 88h-5v4h5v-4zM126 88h-4v4h4v-4z" fill="#1E4A81"/><path d="M13 92H8v5h5v-5zM17 92h-4v5h4v-5z" fill="#1C323D"/><path d="M39 92h-4v5h4v-5z" fill="#3D4247"/><path d="M43 92h-4v5h4v-5z" fill="#111815"/><path d="M48 92h-5v5h5v-5z" fill="#1D2423"/><path d="M61 92h-5v5h5v-5z" fill="#162225"/><path d="M65 92h-4v5h4v-5z" fill="#1C394D"/><path d="M82 92h-4v5h4v-5z" fill="#1C323D"/><path d="M135 92h-5v5h5v-5z" fill="#1D2423"/><path d="M13 97H8v4h5v-4z" fill="#1C323D"/><path d="M39 97h-4v4h4v-4zM43 97h-4v4h4v-4z" fill="#2F3638"/><path d="M48 97h-5v4h5v-4z" fill="#111815"/><path d="M65 97h-4v4h4v-4z" fill="#1C394D"/><path d="M82 97h-4v4h4v-4z" fill="#1C323D"/><path d="M126 97h-4v4h4v-4z" fill="#151B18"/><path d="M130 97h-4v4h4v-4z" fill="#272C2B"/><path d="M135 97h-5v4h5v-4z" fill="#3D4247"/><path d="M139 97h-4v4h4v-4z" fill="#1D2423"/><path d="M35 101h-5v4h5v-4z" fill="#1C394D"/><path d="M48 101h-5v4h5v-4z" fill="#1D2423"/><path d="M52 101h-4v4h4v-4z" fill="#151B18"/><path d="M56 101h-4v4h4v-4z" fill="#1C323D"/><path d="M61 101h-5v4h5v-4zM65 101h-4v4h4v-4z" fill="#1C394D"/><path d="M82 101h-4v4h4v-4z" fill="#1C323D"/><path d="M87 101h-5v4h5v-4zM91 101h-4v4h4v-4zM96 101h-5v4h5v-4zM100 101h-4v4h4v-4zM104 101h-4v4h4v-4z" fill="#1C394D"/><path d="M126 101h-4v4h4v-4z" fill="#111815"/><path d="M130 101h-4v4h4v-4z" fill="#1B211F"/><path d="M135 101h-5v4h5v-4z" fill="#1E4A81"/><path d="M139 101h-4v4h4v-4z" fill="#2454C7"/><path d="M21 105h-4v5h4v-5z" fill="#181E1C"/><path d="M35 105h-5v5h5v-5zM39 105h-4v5h4v-5z" fill="#1C394D"/><path d="M43 105h-4v5h4v-5z" fill="#151B18"/><path d="M61 105h-5v5h5v-5zM65 105h-4v5h4v-5zM69 105h-4v5h4v-5zM74 105h-5v5h5v-5z" fill="#1C323D"/><path d="M78 105h-4v5h4v-5zM82 105h-4v5h4v-5zM87 105h-5v5h5v-5zM91 105h-4v5h4v-5zM96 105h-5v5h5v-5zM100 105h-4v5h4v-5z" fill="#1C394D"/><path d="M104 105h-4v5h4v-5z" fill="#1C323D"/><path d="M109 105h-5v5h5v-5z" fill="#1C394D"/><path d="M113 105h-4v5h4v-5z" fill="#1C323D"/><path d="M130 105h-4v5h4v-5zM135 105h-5v5h5v-5zM139 105h-4v5h4v-5z" fill="#1C394D"/><path d="M144 105h-5v5h5v-5z" fill="#2454C7"/><path d="M148 105h-4v5h4v-5z" fill="#3D4247"/><path d="M30 110h-4v4h4v-4z" fill="#181E1C"/><path d="M35 110h-5v4h5v-4zM39 110h-4v4h4v-4z" fill="#151B18"/><path d="M43 110h-4v4h4v-4z" fill="#162225"/><path d="M96 110h-5v4h5v-4z" fill="#111815"/><path d="M100 110h-4v4h4v-4z" fill="#151B18"/><path d="M104 110h-4v4h4v-4z" fill="#111815"/><path d="M126 110h-4v4h4v-4z" fill="#2F3638"/><path d="M130 110h-4v4h4v-4zM135 110h-5v4h5v-4zM139 110h-4v4h4v-4z" fill="#1C394D"/><path d="M144 110h-5v4h5v-4z" fill="#2454C7"/><path d="M148 110h-4v4h4v-4z" fill="#171A13"/><path d="M104 114h-4v5h4v-5z" fill="#151B18"/><path d="M126 114h-4v5h4v-5z" fill="#1C394D"/><path d="M130 114h-4v5h4v-5z" fill="#272C2B"/><path d="M135 114h-5v5h5v-5zM139 114h-4v5h4v-5zM144 114h-5v5h5v-5zM148 114h-4v5h4v-5zM152 114h-4v5h4v-5zM157 114h-5v5h5v-5z" fill="#1C394D"/><path d="M61 119h-5v4h5v-4z" fill="#111815"/><path d="M65 119h-4v4h4v-4z" fill="#2F3638"/><path d="M130 119h-4v4h4v-4z" fill="#151B18"/><path d="M135 119h-5v4h5v-4z" fill="#1C394D"/><path d="M139 119h-4v4h4v-4zM144 119h-5v4h5v-4zM148 119h-4v4h4v-4z" fill="#151B18"/><path d="M152 119h-4v4h4v-4z" fill="#181E1C"/><path d="M157 119h-5v4h5v-4z" fill="#151B18"/><path d="M61 123h-5v4h5v-4z" fill="#1B211F"/><path d="M65 123h-4v4h4v-4zM69 123h-4v4h4v-4z" fill="#2F3638"/><path d="M100 123h-4v4h4v-4z" fill="#1D2423"/><path d="M109 123h-5v4h5v-4z" fill="#272C2B"/><path d="M113 123h-4v4h4v-4z" fill="#1B211F"/><path d="M130 123h-4v4h4v-4z" fill="#1C394D"/><path d="M135 123h-5v4h5v-4zM139 123h-4v4h4v-4z" fill="#151B18"/><path d="M144 123h-5v4h5v-4z" fill="#1B211F"/><path d="M148 123h-4v4h4v-4zM152 123h-4v4h4v-4zM61 127h-5v5h5v-5zM65 127h-4v5h4v-5zM69 127h-4v5h4v-5z" fill="#3D4247"/><path d="M78 127h-4v5h4v-5z" fill="#181E1C"/><path d="M82 127h-4v5h4v-5z" fill="#272C2B"/><path d="M87 127h-5v5h5v-5z" fill="#3D4247"/><path d="M91 127h-4v5h4v-5z" fill="#272C2B"/><path d="M96 127h-5v5h5v-5z" fill="#2F3638"/><path d="M100 127h-4v5h4v-5z" fill="#111815"/><path d="M109 127h-5v5h5v-5zM113 127h-4v5h4v-5z" fill="#3D4247"/><path d="M130 127h-4v5h4v-5z" fill="#162225"/><path d="M135 127h-5v5h5v-5zM139 127h-4v5h4v-5zM144 127h-5v5h5v-5z" fill="#1B211F"/><path d="M148 127h-4v5h4v-5zM152 127h-4v5h4v-5z" fill="#3D4247"/><path d="M157 127h-5v5h5v-5zM56 132h-4v4h4v-4z" fill="#2F3638"/><path d="M61 132h-5v4h5v-4zM65 132h-4v4h4v-4z" fill="#3D4247"/><path d="M69 132h-4v4h4v-4z" fill="#151B18"/><path d="M100 132h-4v4h4v-4z" fill="#0D150C"/><path d="M104 132h-4v4h4v-4z" fill="#1D2423"/><path d="M117 132h-4v4h4v-4z" fill="#3D4247"/><path d="M135 132h-5v4h5v-4z" fill="#1C1F1A"/><path d="M139 132h-4v4h4v-4z" fill="#151B18"/><path d="M144 132h-5v4h5v-4z" fill="#111815"/><path d="M148 132h-4v4h4v-4z" fill="#151B18"/><path d="M152 132h-4v4h4v-4z" fill="#181E1C"/><path d="M157 132h-5v4h5v-4z" fill="#111815"/><path d="M52 136h-4v4h4v-4z" fill="#1F53A0"/><path d="M65 136h-4v4h4v-4z" fill="#151B18"/><path d="M69 136h-4v4h4v-4z" fill="#1E2729"/><path d="M104 136h-4v4h4v-4z" fill="#171A13"/><path d="M109 136h-5v4h5v-4z" fill="#1B211F"/><path d="M139 136h-4v4h4v-4z" fill="#3D4247"/><path d="M144 136h-5v4h5v-4zM148 136h-4v4h4v-4zM152 136h-4v4h4v-4z" fill="#111815"/><path d="M65 140h-4v5h4v-5zM69 140h-4v5h4v-5z" fill="#1E4A81"/><path d="M104 140h-4v5h4v-5z" fill="#1C323D"/><path d="M109 140h-5v5h5v-5zM48 145h-5v4h5v-4z" fill="#1C394D"/><path d="M65 145h-4v4h4v-4zM69 145h-4v4h4v-4z" fill="#1E4A81"/><path d="M74 145h-5v4h5v-4z" fill="#1C394D"/><path d="M100 145h-4v4h4v-4z" fill="#1C323D"/><path d="M104 145h-4v4h4v-4zM109 145h-5v4h5v-4z" fill="#1C394D"/><path d="M126 145h-4v4h4v-4z" fill="#1E4A81"/><path d="M48 149h-5v4h5v-4zM52 149h-4v4h4v-4zM56 149h-4v4h4v-4z" fill="#162225"/><path d="M61 149h-5v4h5v-4z" fill="#151B18"/><path d="M65 149h-4v4h4v-4z" fill="#1E4A81"/><path d="M69 149h-4v4h4v-4z" fill="#1C394D"/><path d="M74 149h-5v4h5v-4zM100 149h-4v4h4v-4z" fill="#1C323D"/><path d="M104 149h-4v4h4v-4zM109 149h-5v4h5v-4zM113 149h-4v4h4v-4zM117 149h-4v4h4v-4zM122 149h-5v4h5v-4z" fill="#1C394D"/><path d="M126 149h-4v4h4v-4z" fill="#1E4A81"/><path d="M48 153h-5v5h5v-5z" fill="#3D4247"/><path d="M52 153h-4v5h4v-5z" fill="#2F3638"/><path d="M56 153h-4v5h4v-5z" fill="#3D4247"/><path d="M61 153h-5v5h5v-5z" fill="#1E2729"/><path d="M65 153h-4v5h4v-5z" fill="#151B18"/><path d="M69 153h-4v5h4v-5zM100 153h-4v5h4v-5z" fill="#1C394D"/><path d="M104 153h-4v5h4v-5z" fill="#1C323D"/><path d="M109 153h-5v5h5v-5z" fill="#151B18"/><path d="M113 153h-4v5h4v-5z" fill="#3D4247"/><path d="M117 153h-4v5h4v-5z" fill="#2F3638"/><path d="M122 153h-5v5h5v-5z" fill="#1D2423"/><path d="M126 153h-4v5h4v-5zM48 158h-5v4h5v-4zM52 158h-4v4h4v-4zM56 158h-4v4h4v-4z" fill="#151B18"/><path d="M61 158h-5v4h5v-4zM65 158h-4v4h4v-4z" fill="#111815"/><path d="M69 158h-4v4h4v-4z" fill="#151B18"/><path d="M100 158h-4v4h4v-4z" fill="#1C323D"/><path d="M104 158h-4v4h4v-4z" fill="#111815"/><path d="M109 158h-5v4h5v-4z" fill="#151B18"/><path d="M113 158h-4v4h4v-4z" fill="#111815"/><path d="M117 158h-4v4h4v-4zM122 158h-5v4h5v-4z" fill="#151B18"/><path d="M61 162h-5v5h5v-5z" fill="#3D4247"/><path d="M65 162h-4v5h4v-5z" fill="#1D2423"/><path d="M104 162h-4v5h4v-5z" fill="#1B211F"/><path d="M109 162h-5v5h5v-5z" fill="#272C2B"/><path d="M130 162h-4v5h4v-5z" fill="#2F3638"/><path d="M43 167h-4v4h4v-4zM48 167h-5v4h5v-4zM52 167h-4v4h4v-4zM56 167h-4v4h4v-4z" fill="#3D4247"/><path d="M61 167h-5v4h5v-4z" fill="#1D2423"/><path d="M65 167h-4v4h4v-4zM69 167h-4v4h4v-4z" fill="#1B211F"/><path d="M100 167h-4v4h4v-4z" fill="#181E1C"/><path d="M104 167h-4v4h4v-4zM109 167h-5v4h5v-4z" fill="#1B211F"/><path d="M113 167h-4v4h4v-4z" fill="#2F3638"/><path d="M117 167h-4v4h4v-4zM122 167h-5v4h5v-4zM126 167h-4v4h4v-4zM130 167h-4v4h4v-4z" fill="#3D4247"/><path d="M113 31h-4v5h4v-5zM109 31h-5v5h5v-5zM104 31h-4v5h4v-5zM100 31h-4v5h4v-5zM96 31h-5v5h5v-5zM91 31h-4v5h4v-5zM87 31h-5v5h5v-5zM117 58h-4v4h4v-4zM117 53h-4v5h4v-5zM117 49h-4v4h4v-4zM117 44h-4v5h4v-5zM117 40h-4v4h4v-4zM117 36h-4v4h4v-4zM74 36h-5v4h5v-4zM74 40h-5v4h5v-4zM74 44h-5v5h5v-5zM74 49h-5v4h5v-4zM74 53h-5v5h5v-5zM74 58h-5v4h5v-4zM74 31h-5v5h5v-5zM78 31h-4v5h4v-5zM82 31h-4v5h4v-5z" fill="#328AF1"/><path d="M82 49h-4v4h4v-4zM82 44h-4v5h4v-5z" fill="#0ED1EF"/><path d="M82 62h-4v4h4v-4zM87 62h-5v4h5v-4zM91 62h-4v4h4v-4zM96 62h-5v4h5v-4zM100 62h-4v4h4v-4zM104 62h-4v4h4v-4zM109 62h-5v4h5v-4zM113 62h-4v4h4v-4zM117 62h-4v4h4v-4z" fill="#689AF8"/><path d="M8 66H4v5h4v-5z" fill="#272C2B"/><path d="M104 84h-4v4h4v-4zM100 84h-4v4h4v-4zM96 84h-5v4h5v-4z" fill="#328AF1"/><path d="M69 27h-4v4h4v-4z" fill="#2E6DE4"/><path d="M135 84h-5v4h5v-4zM130 84h-4v4h4v-4zM130 79h-4v5h4v-5zM56 136h-4v4h4v-4zM117 145h-4v4h4v-4zM113 145h-4v4h4v-4zM113 140h-4v5h4v-5zM113 136h-4v4h4v-4zM117 140h-4v5h4v-5zM56 140h-4v5h4v-5zM52 140h-4v5h4v-5z" fill="#328AF1"/><path d="M30 71h-4v4h4v-4zM30 66h-4v5h4v-5z" fill="#131A19"/><path d="M122 101h-5v4h5v-4zM122 97h-5v4h5v-4zM52 97h-4v4h4v-4zM52 92h-4v5h4v-5zM56 92h-4v5h4v-5zM56 97h-4v4h4v-4zM61 97h-5v4h5v-4z" fill="#0E1615"/><path d="M87 79h-5v5h5v-5zM82 79h-4v5h4v-5zM109 84h-5v4h5v-4zM109 79h-5v5h5v-5zM104 79h-4v5h4v-5zM100 79h-4v5h4v-5zM96 79h-5v5h5v-5zM91 79h-4v5h4v-5zM144 101h-5v4h5v-4zM148 101h-4v4h4v-4zM152 101h-4v4h4v-4zM152 105h-4v5h4v-5zM152 110h-4v4h4v-4zM135 75h-5v4h5v-4zM130 75h-4v4h4v-4zM126 71h-4v4h4v-4zM122 71h-5v4h5v-4zM117 71h-4v4h4v-4zM122 145h-5v4h5v-4zM122 140h-5v5h5v-5zM122 136h-5v4h5v-4zM117 136h-4v4h4v-4zM52 145h-4v4h4v-4zM56 145h-4v4h4v-4zM61 145h-5v4h5v-4zM61 136h-5v4h5v-4zM61 140h-5v5h5v-5zM43 79h-4v5h4v-5zM43 75h-4v4h4v-4zM48 75h-5v4h5v-4zM52 75h-4v4h4v-4zM104 27h-4v4h4v-4zM100 27h-4v4h4v-4zM96 27h-5v4h5v-4zM91 27h-4v4h4v-4zM87 27h-5v4h5v-4zM82 27h-4v4h4v-4zM126 158h-4v4h4v-4z" fill="#689AF8"/><path d="M69 171h-4v4h4v-4zM65 171h-4v4h4v-4zM61 171h-5v4h5v-4zM56 171h-4v4h4v-4zM52 171h-4v4h4v-4zM48 171h-5v4h5v-4zM43 171h-4v4h4v-4zM39 171h-4v4h4v-4zM35 171h-5v4h5v-4zM130 171h-4v4h4v-4zM126 171h-4v4h4v-4zM122 171h-5v4h5v-4zM117 171h-4v4h4v-4zM109 171h-5v4h5v-4zM104 171h-4v4h4v-4zM100 171h-4v4h4v-4zM113 171h-4v4h4v-4z" fill="#0E1615"/><path d="M130 88h-4v4h4v-4zM135 88h-5v4h5v-4zM122 92h-5v5h5v-5zM126 92h-4v5h4v-5zM130 92h-4v5h4v-5zM17 58h-4v4h4v-4zM21 58h-4v4h4v-4zM26 58h-5v4h5v-4zM17 71h-4v4h4v-4zM17 66h-4v5h4v-5zM21 62h-4v4h4v-4zM17 62h-4v4h4v-4zM13 66H8v5h5v-5zM13 62H8v4h5v-4zM17 75h-4v4h4v-4z" fill="#0C1212"/><path d="M30 171h-4v4h4v-4zM87 175h-5v5h5v-5zM91 175h-4v5h4v-5zM82 175h-4v5h4v-5zM78 175h-4v5h4v-5zM78 171h-4v4h4v-4zM82 171h-4v4h4v-4zM87 171h-5v4h5v-4zM91 171h-4v4h4v-4zM135 175h-5v5h5v-5zM139 175h-4v5h4v-5zM139 171h-4v4h4v-4zM135 171h-5v4h5v-4zM144 175h-5v5h5v-5zM35 175h-5v5h5v-5zM30 175h-4v5h4v-5zM26 171h-5v4h5v-4z" fill="#1C2330"/><path d="M48 79h-5v5h5v-5zM48 84h-5v4h5v-4zM56 79h-4v5h4v-5zM52 79h-4v5h4v-5zM52 84h-4v4h4v-4zM61 84h-5v4h5v-4zM56 84h-4v4h4v-4zM56 88h-4v4h4v-4zM61 88h-5v4h5v-4zM78 75h-4v4h4v-4zM82 75h-4v4h4v-4zM87 75h-5v4h5v-4zM91 75h-4v4h4v-4zM96 75h-5v4h5v-4zM100 75h-4v4h4v-4zM104 75h-4v4h4v-4zM78 79h-4v5h4v-5zM74 79h-5v5h5v-5zM69 88h-4v4h4v-4zM69 92h-4v5h4v-5zM74 92h-5v5h5v-5zM69 97h-4v4h4v-4zM69 101h-4v4h4v-4zM74 101h-5v4h5v-4zM78 101h-4v4h4v-4zM74 97h-5v4h5v-4zM74 88h-5v4h5v-4zM78 84h-4v4h4v-4zM74 84h-5v4h5v-4zM91 84h-4v4h4v-4zM87 84h-5v4h5v-4zM82 84h-4v4h4v-4zM82 88h-4v4h4v-4zM78 97h-4v4h4v-4zM78 92h-4v5h4v-5zM78 88h-4v4h4v-4zM117 84h-4v4h4v-4zM117 79h-4v5h4v-5zM122 79h-5v5h5v-5zM122 75h-5v4h5v-4z" fill="#2E6DE4"/><path d="M109 119h-5v4h5v-4zM157 123h-5v4h5v-4z" fill="#272C2B"/><path d="M78 110h-4v4h4v-4zM78 114h-4v5h4v-5zM78 119h-4v4h4v-4zM74 119h-5v4h5v-4zM69 119h-4v4h4v-4zM69 114h-4v5h4v-5zM74 114h-5v5h5v-5zM74 110h-5v4h5v-4zM104 119h-4v4h4v-4zM100 119h-4v4h4v-4zM100 114h-4v5h4v-5z" fill="#0E1615"/><path d="M78 62h-4v4h4v-4z" fill="#689AF8"/><path d="M109 88h-5v4h5v-4zM113 97h-4v4h4v-4zM113 92h-4v5h4v-5zM113 88h-4v4h4v-4zM117 92h-4v5h4v-5zM117 88h-4v4h4v-4zM117 97h-4v4h4v-4z" fill="#2E6DE4"/><path d="M91 92h-4v5h4v-5zM87 92h-5v5h5v-5zM104 92h-4v5h4v-5z" fill="#272C2B"/><path d="M91 88h-4v4h4v-4zM96 88h-5v4h5v-4zM100 88h-4v4h4v-4zM87 88h-5v4h5v-4zM100 97h-4v4h4v-4zM100 92h-4v5h4v-5zM96 97h-5v4h5v-4zM96 92h-5v5h5v-5zM104 97h-4v4h4v-4zM87 97h-5v4h5v-4zM91 97h-4v4h4v-4z" fill="#0E1615"/><path d="M109 101h-5v4h5v-4zM109 97h-5v4h5v-4zM109 92h-5v5h5v-5zM117 101h-4v4h4v-4zM113 101h-4v4h4v-4zM104 88h-4v4h4v-4z" fill="#2E6DE4"/><path d="M117 105h-4v5h4v-5z" fill="#272C2B"/><path d="M69 84h-4v4h4v-4zM69 79h-4v5h4v-5zM69 75h-4v4h4v-4zM74 75h-5v4h5v-4z" fill="#689AF8"/><path d="M113 132h-4v4h4v-4zM109 132h-5v4h5v-4z" fill="#272C2B"/><path d="M96 119h-5v4h5v-4zM96 114h-5v5h5v-5z" fill="#0E1615"/><path d="M91 110h-4v4h4v-4zM91 114h-4v5h4v-5zM91 119h-4v4h4v-4zM87 119h-5v4h5v-4zM87 114h-5v5h5v-5zM87 110h-5v4h5v-4zM82 119h-4v4h4v-4zM82 114h-4v5h4v-5zM82 110h-4v4h4v-4zM96 123h-5v4h5v-4zM91 123h-4v4h4v-4zM87 123h-5v4h5v-4zM82 123h-4v4h4v-4zM78 123h-4v4h4v-4zM74 127h-5v5h5v-5zM74 123h-5v4h5v-4zM104 127h-4v5h4v-5zM104 123h-4v4h4v-4z" fill="#252E32"/><path d="M21 92h-4v5h4v-5zM26 92h-5v5h5v-5zM26 97h-5v4h5v-4zM21 97h-4v4h4v-4zM17 97h-4v4h4v-4zM30 101h-4v4h4v-4zM30 97h-4v4h4v-4z" fill="#2E6DE4"/><path d="M30 88h-4v4h4v-4zM43 101h-4v4h4v-4zM39 101h-4v4h4v-4zM30 105h-4v5h4v-5z" fill="#272C2B"/><path d="M26 101h-5v4h5v-4zM21 101h-4v4h4v-4zM26 105h-5v5h5v-5z" fill="#2E6DE4"/><path d="M35 92h-5v5h5v-5zM30 92h-4v5h4v-5zM35 97h-5v4h5v-4z" fill="#1E3548"/><path d="M69 175h-4v5h4v-5zM39 175h-4v5h4v-5zM43 175h-4v5h4v-5zM48 175h-5v5h5v-5zM52 175h-4v5h4v-5zM56 175h-4v5h4v-5zM61 175h-5v5h5v-5zM65 175h-4v5h4v-5zM130 175h-4v5h4v-5zM126 175h-4v5h4v-5zM122 175h-5v5h5v-5zM117 175h-4v5h4v-5zM113 175h-4v5h4v-5zM109 175h-5v5h5v-5zM104 175h-4v5h4v-5zM100 175h-4v5h4v-5zM74 175h-5v5h5v-5zM74 171h-5v4h5v-4zM96 175h-5v5h5v-5zM96 171h-5v4h5v-4z" fill="#161C27"/><path d="M48 162h-5v5h5v-5zM52 162h-4v5h4v-5zM56 162h-4v5h4v-5zM126 162h-4v5h4v-5zM122 162h-5v5h5v-5zM117 162h-4v5h4v-5zM113 162h-4v5h4v-5z" fill="#252E32"/><path d="M82 58h-4v4h4v-4zM78 58h-4v4h4v-4zM87 58h-5v4h5v-4zM113 58h-4v4h4v-4zM109 58h-5v4h5v-4zM104 58h-4v4h4v-4zM100 58h-4v4h4v-4zM96 58h-5v4h5v-4zM91 58h-4v4h4v-4zM78 36h-4v4h4v-4zM78 40h-4v4h4v-4zM78 44h-4v5h4v-5zM78 53h-4v5h4v-5zM78 49h-4v4h4v-4zM113 53h-4v5h4v-5zM113 49h-4v4h4v-4zM113 44h-4v5h4v-5zM113 40h-4v4h4v-4zM113 36h-4v4h4v-4zM109 36h-5v4h5v-4zM104 36h-4v4h4v-4zM100 36h-4v4h4v-4zM96 36h-5v4h5v-4zM91 36h-4v4h4v-4zM87 36h-5v4h5v-4zM82 36h-4v4h4v-4zM109 53h-5v5h5v-5zM104 53h-4v5h4v-5zM100 53h-4v5h4v-5zM96 53h-5v5h5v-5zM91 53h-4v5h4v-5zM87 53h-5v5h5v-5zM82 53h-4v5h4v-5zM104 49h-4v4h4v-4zM100 49h-4v4h4v-4zM96 49h-5v4h5v-4zM91 49h-4v4h4v-4zM87 49h-5v4h5v-4zM82 40h-4v4h4v-4zM109 40h-5v4h5v-4z" fill="#161C27"/></g></g><defs><clipPath id="clip0_4505_16475"><path fill="#fff" transform="matrix(-1 0 0 1 315.756 30)" d="M0 0h144.756v149.748H0z"/></clipPath><clipPath id="clip1_4505_16475"><path fill="#fff" transform="translate(4 27)" d="M0 0h152.604v152.604H0z"/></clipPath></defs></svg>